<svg width="271" height="317" viewBox="0 0 271 317" fill="none" xmlns="http://www.w3.org/2000/svg">
<path d="M37.9727 0.161034C49.7726 9.2866 91.3381 92.7586 98.2878 139.192C127.695 152.925 157.345 172.705 170.602 143.441C186.488 108.374 238.685 0.141146 227.836 0.141113C220.241 0.14109 61.8914 0.161021 37.9727 0.161034Z" fill="#2E203C" stroke="#2E203C" stroke-width="0.282399"/>
<path d="M228.185 1.77197C231.126 0.963248 235.125 0.981155 239.378 4.09912C243.213 5.77233 246.302 7.28847 248.517 8.67334C249.633 9.37142 250.558 10.0549 251.25 10.73C251.932 11.3945 252.464 12.1225 252.663 12.9204L252.896 13.8521L251.972 14.1118L243.158 16.5903C245.513 33.8072 246.537 67.321 246.073 103.365C245.602 140.031 243.593 179.411 239.864 207.061C235.426 239.977 216.953 264.946 196.281 282.761C175.616 300.571 152.692 311.288 139.179 315.71L138.534 313.842C155.742 307.596 165.914 294.044 170.993 279.416C176.082 264.761 176.015 249.136 172.836 238.952L172.57 238.098L173.392 237.749C186.757 232.059 191.721 222.557 192.583 212.98C193.453 203.317 190.143 193.514 186.804 187.448L186.466 186.833L186.934 186.312C198.32 173.59 198.515 160.051 194.121 148.197C189.704 136.28 180.647 126.101 173.638 120.385L173.21 120.037L173.282 119.49L177.591 86.8765L177.597 86.8296L177.608 86.7827L186.707 47.355L186.761 47.1187L186.918 46.9351L223.276 4.3208L223.322 4.26514L223.377 4.21729L224.028 4.9624C223.378 4.2178 223.378 4.2167 223.378 4.21631L223.379 4.21533C223.38 4.2147 223.381 4.21419 223.382 4.21338C223.384 4.21176 223.386 4.20981 223.389 4.20752C223.394 4.20282 223.402 4.1964 223.41 4.18896C223.428 4.1741 223.453 4.15434 223.484 4.12939C223.545 4.07937 223.633 4.01025 223.745 3.92627C223.97 3.75831 224.294 3.53005 224.707 3.27881C225.531 2.77757 226.72 2.17467 228.185 1.77197Z" fill="#231C30" stroke="url(#paint0_linear_164_223)" stroke-width="1.9768"/>
<path d="M242.756 7.73828C223.069 5.05575 171.734 103.539 148.636 151.804L270.69 42.4534C270.69 34.3164 264.372 18.069 252.789 10.448C249.752 8.44988 246.917 8.30517 242.756 7.73828Z" fill="#231C30"/>
<g filter="url(#filter0_i_164_223)">
<path d="M255.219 22.8799C238.128 -0.265316 193.034 73.9122 179.464 104.095C171.558 100.635 162.551 100.414 189.774 127.212C216.996 154.011 204.376 178.158 196.013 186.619C212.545 216.523 191.278 233.464 180.747 237.564C185.747 250.344 177.826 277.285 173.225 288.989C269.91 256.756 275.22 49.9663 255.219 22.8799Z" fill="#30254C"/>
</g>
<path d="M42.5057 1.77197C39.5648 0.963248 35.5659 0.981155 31.3123 4.09912C27.4774 5.77233 24.388 7.28847 22.1736 8.67334C21.0575 9.37142 20.1328 10.0549 19.4402 10.73C18.7585 11.3945 18.2267 12.1225 18.0272 12.9204L17.7947 13.8521L18.7186 14.1118L27.532 16.5903C25.1772 33.8072 24.1534 67.321 24.617 103.365C25.0887 140.031 27.0974 179.411 30.826 207.061C35.2647 239.977 53.7375 264.946 74.409 282.761C95.0741 300.571 117.999 311.288 131.512 315.71L132.156 313.842C114.949 307.596 104.776 294.044 99.6971 279.416C94.6089 264.761 94.6759 249.136 97.8543 238.952L98.1209 238.098L97.2986 237.749C83.9333 232.059 78.9695 222.557 78.1072 212.98C77.2373 203.317 80.5471 193.514 83.8865 187.448L84.2244 186.833L83.7567 186.312C72.37 173.59 72.1751 160.051 76.5692 148.197C80.9863 136.28 90.0439 126.101 97.0526 120.385L97.4803 120.037L97.408 119.49L93.0994 86.8765L93.0936 86.8296L93.0828 86.7827L83.9832 47.355L83.9295 47.1187L83.7723 46.9351L47.4149 4.3208L47.368 4.26514L47.3133 4.21729L46.6629 4.9624C47.3129 4.2178 47.3128 4.2167 47.3123 4.21631L47.3113 4.21533C47.3106 4.2147 47.3093 4.21419 47.3084 4.21338C47.3065 4.21176 47.3042 4.20981 47.3016 4.20752C47.2961 4.20282 47.2889 4.1964 47.2801 4.18896C47.2625 4.1741 47.2376 4.15434 47.2068 4.12939C47.1452 4.07937 47.0574 4.01025 46.9451 3.92627C46.7205 3.75831 46.3962 3.53005 45.9832 3.27881C45.1593 2.77757 43.97 2.17467 42.5057 1.77197Z" fill="#231C30" stroke="url(#paint1_linear_164_223)" stroke-width="1.9768"/>
<path d="M27.9341 7.73828C47.6208 5.05575 98.9562 103.539 122.055 151.804L3.05176e-05 42.4534C3.05176e-05 34.3164 6.31882 18.069 17.9014 10.448C20.9381 8.44988 23.7738 8.30517 27.9341 7.73828Z" fill="#231C30"/>
<g filter="url(#filter1_i_164_223)">
<path d="M15.4712 22.8799C32.5619 -0.265316 77.6567 73.9122 91.2266 104.095C99.1326 100.635 108.139 100.414 80.9165 127.212C53.6941 154.011 66.3141 178.158 74.6773 186.619C58.1456 216.523 79.412 233.464 89.9434 237.564C84.9432 250.344 92.8639 277.285 97.4658 288.989C0.780357 256.756 -4.52959 49.9663 15.4712 22.8799Z" fill="#30254C"/>
</g>
<g filter="url(#filter2_d_164_223)">
<path d="M152.682 234.845C141.059 242.162 128.979 242.436 117.531 234.845C103.788 225.732 117.561 206.341 106.607 194.004C96.7519 182.905 72.0707 178.205 72.0707 178.205L78.628 144.577L72.0707 91.9154L75.1059 33.9451C75.1059 33.9451 104.025 51.4505 113.426 73.669C121.183 92.002 125.567 121.566 125.567 121.566C131.827 119.095 135.811 119.095 142.64 121.566C142.64 121.566 147.197 92.4327 156.109 73.669C165.74 53.3918 194.049 30.5239 194.049 30.5239V91.9154L190.626 144.577L202.017 178.205C202.017 178.205 176.151 182.646 165.566 194.004C154.172 206.23 166.818 225.946 152.682 234.845Z" fill="#4B2F53"/>
<path d="M152.682 234.845C141.059 242.162 128.979 242.436 117.531 234.845C103.788 225.732 117.561 206.341 106.607 194.004C96.7519 182.905 72.0707 178.205 72.0707 178.205L78.628 144.577L72.0707 91.9154L75.1059 33.9451C75.1059 33.9451 104.025 51.4505 113.426 73.669C121.183 92.002 125.567 121.566 125.567 121.566C131.827 119.095 135.811 119.095 142.64 121.566C142.64 121.566 147.197 92.4327 156.109 73.669C165.74 53.3918 194.049 30.5239 194.049 30.5239V91.9154L190.626 144.577L202.017 178.205C202.017 178.205 176.151 182.646 165.566 194.004C154.172 206.23 166.818 225.946 152.682 234.845Z" stroke="url(#paint2_linear_164_223)" stroke-width="1.9768"/>
</g>
<path d="M147.781 221.452H123.394L135.323 233.499L147.781 221.452Z" fill="#AEA8D3"/>
<path d="M105.858 156.874C117.622 156.004 120.262 170.359 120.112 177.645C117.314 176.863 110.275 175.241 104.506 175.012C97.2946 174.726 94.7594 163.626 96.0552 160.364C97.0918 157.755 103.022 156.95 105.858 156.874Z" fill="white"/>
<path d="M168.016 156.874C156.428 156.004 153.827 170.359 153.975 177.645C156.731 176.863 163.665 175.241 169.348 175.012C176.452 174.726 178.949 163.626 177.673 160.364C176.651 157.755 170.809 156.95 168.016 156.874Z" fill="white"/>
<defs>
<filter id="filter0_i_164_223" x="171.441" y="18.4766" width="93.1825" height="270.513" filterUnits="userSpaceOnUse" color-interpolation-filters="sRGB">
<feFlood flood-opacity="0" result="BackgroundImageFix"/>
<feBlend mode="normal" in="SourceGraphic" in2="BackgroundImageFix" result="shape"/>
<feColorMatrix in="SourceAlpha" type="matrix" values="0 0 0 0 0 0 0 0 0 0 0 0 0 0 0 0 0 0 127 0" result="hardAlpha"/>
<feOffset dx="6.21279" dy="1.9768"/>
<feComposite in2="hardAlpha" operator="arithmetic" k2="-1" k3="1"/>
<feColorMatrix type="matrix" values="0 0 0 0 0.161705 0 0 0 0 0.0839035 0 0 0 0 0.317308 0 0 0 0.25 0"/>
<feBlend mode="normal" in2="shape" result="effect1_innerShadow_164_223"/>
</filter>
<filter id="filter1_i_164_223" x="6.06674" y="18.4766" width="93.1825" height="270.513" filterUnits="userSpaceOnUse" color-interpolation-filters="sRGB">
<feFlood flood-opacity="0" result="BackgroundImageFix"/>
<feBlend mode="normal" in="SourceGraphic" in2="BackgroundImageFix" result="shape"/>
<feColorMatrix in="SourceAlpha" type="matrix" values="0 0 0 0 0 0 0 0 0 0 0 0 0 0 0 0 0 0 127 0" result="hardAlpha"/>
<feOffset dx="6.21279" dy="1.9768"/>
<feComposite in2="hardAlpha" operator="arithmetic" k2="-1" k3="1"/>
<feColorMatrix type="matrix" values="0 0 0 0 0.161705 0 0 0 0 0.0839035 0 0 0 0 0.317308 0 0 0 0.25 0"/>
<feBlend mode="normal" in2="shape" result="effect1_innerShadow_164_223"/>
</filter>
<filter id="filter2_d_164_223" x="70.9106" y="19.4183" width="132.413" height="222.006" filterUnits="userSpaceOnUse" color-interpolation-filters="sRGB">
<feFlood flood-opacity="0" result="BackgroundImageFix"/>
<feColorMatrix in="SourceAlpha" type="matrix" values="0 0 0 0 0 0 0 0 0 0 0 0 0 0 0 0 0 0 127 0" result="hardAlpha"/>
<feOffset dy="-9.03678"/>
<feComposite in2="hardAlpha" operator="out"/>
<feColorMatrix type="matrix" values="0 0 0 0 0 0 0 0 0 0 0 0 0 0 0 0 0 0 0.25 0"/>
<feBlend mode="normal" in2="BackgroundImageFix" result="effect1_dropShadow_164_223"/>
<feBlend mode="normal" in="SourceGraphic" in2="effect1_dropShadow_164_223" result="shape"/>
</filter>
<linearGradient id="paint0_linear_164_223" x1="191.463" y1="280.105" x2="221.545" y2="190.819" gradientUnits="userSpaceOnUse">
<stop stop-color="#D961F5"/>
<stop offset="1" stop-color="#231C30"/>
</linearGradient>
<linearGradient id="paint1_linear_164_223" x1="79.2274" y1="280.105" x2="49.1453" y2="190.819" gradientUnits="userSpaceOnUse">
<stop stop-color="#D961F5"/>
<stop offset="1" stop-color="#231C30"/>
</linearGradient>
<linearGradient id="paint2_linear_164_223" x1="132.312" y1="41.2933" x2="130.847" y2="190.057" gradientUnits="userSpaceOnUse">
<stop stop-color="#DE7FEF"/>
<stop offset="1" stop-color="#7F4989"/>
</linearGradient>
</defs>
</svg>
