<svg width="552" height="396" viewBox="0 0 552 396" fill="none" xmlns="http://www.w3.org/2000/svg">
<g clip-path="url(#clip0_338_165)">
<rect width="551.987" height="395.825" rx="48.8004" fill="white"/>
<path d="M67.6636 60.9H81.2516V77.412L105.16 60.9H124.854L103.053 75.95L124.854 91H105.16L93.2056 82.744L81.2516 91H67.6636V60.9ZM189.809 91H174.501L171.018 86.7H144.53L141.047 91H125.739L150.12 60.9H165.428L189.809 91ZM164.052 78.1L157.774 70.36L151.496 78.1H164.052ZM202.129 71.22H180.371V60.9H237.561V71.22H215.717V91H202.129V71.22ZM292.186 91H276.878L273.395 86.7H246.907L243.424 91H228.116L252.497 60.9H267.805L292.186 91ZM266.429 78.1L260.151 70.36L253.873 78.1H266.429ZM308.429 91H293.121L317.502 60.9H332.81L357.191 91H341.883L325.156 70.36L308.429 91ZM399.734 60.47C401.798 60.47 403.748 60.8857 405.582 61.717C407.417 62.5483 409.008 63.6807 410.355 65.114C411.731 66.5187 412.806 68.167 413.58 70.059C414.383 71.9223 414.784 73.886 414.784 75.95C414.784 78.014 414.383 79.992 413.58 81.884C412.806 83.7473 411.731 85.3957 410.355 86.829C409.008 88.2337 407.417 89.3517 405.582 90.183C403.748 91.0143 401.798 91.43 399.734 91.43H368.344C366.28 91.43 364.331 91.0143 362.496 90.183C360.662 89.3517 359.056 88.2337 357.68 86.829C356.333 85.3957 355.258 83.7473 354.455 81.884C353.681 79.992 353.294 78.014 353.294 75.95C353.294 73.886 353.681 71.9223 354.455 70.059C355.258 68.167 356.333 66.5187 357.68 65.114C359.056 63.6807 360.662 62.5483 362.496 61.717C364.331 60.8857 366.28 60.47 368.344 60.47H399.734ZM396.939 71.65H371.139C369.935 71.65 368.918 72.0657 368.086 72.897C367.255 73.7283 366.839 74.746 366.839 75.95C366.839 77.154 367.255 78.1717 368.086 79.003C368.918 79.8343 369.935 80.25 371.139 80.25H396.939C398.143 80.25 399.161 79.8343 399.992 79.003C400.824 78.1717 401.239 77.154 401.239 75.95C401.239 74.746 400.824 73.7283 399.992 72.897C399.161 72.0657 398.143 71.65 396.939 71.65ZM417.418 60.9H469.018V71.22H431.006V91H417.418V60.9Z" fill="#756AAA"/>
<path d="M67.6636 108.615H81.2516V125.127L105.16 108.615H124.854L103.053 123.665L124.854 138.715H105.16L93.2056 130.459L81.2516 138.715H67.6636V108.615ZM189.809 138.715H174.501L171.018 134.415H144.53L141.047 138.715H125.739L150.12 108.615H165.428L189.809 138.715ZM164.052 125.815L157.774 118.075L151.496 125.815H164.052ZM202.129 118.935H180.371V108.615H237.561V118.935H215.717V138.715H202.129V118.935ZM292.186 138.715H276.878L273.395 134.415H246.907L243.424 138.715H228.116L252.497 108.615H267.805L292.186 138.715ZM266.429 125.815L260.151 118.075L253.873 125.815H266.429ZM308.429 138.715H293.121L317.502 108.615H332.81L357.191 138.715H341.883L325.156 118.075L308.429 138.715ZM399.734 108.185C401.798 108.185 403.748 108.601 405.582 109.432C407.417 110.263 409.008 111.396 410.355 112.829C411.731 114.234 412.806 115.882 413.58 117.774C414.383 119.637 414.784 121.601 414.784 123.665C414.784 125.729 414.383 127.707 413.58 129.599C412.806 131.462 411.731 133.111 410.355 134.544C409.008 135.949 407.417 137.067 405.582 137.898C403.748 138.729 401.798 139.145 399.734 139.145H368.344C366.28 139.145 364.331 138.729 362.496 137.898C360.662 137.067 359.056 135.949 357.68 134.544C356.333 133.111 355.258 131.462 354.455 129.599C353.681 127.707 353.294 125.729 353.294 123.665C353.294 121.601 353.681 119.637 354.455 117.774C355.258 115.882 356.333 114.234 357.68 112.829C359.056 111.396 360.662 110.263 362.496 109.432C364.331 108.601 366.28 108.185 368.344 108.185H399.734ZM396.939 119.365H371.139C369.935 119.365 368.918 119.781 368.086 120.612C367.255 121.443 366.839 122.461 366.839 123.665C366.839 124.869 367.255 125.887 368.086 126.718C368.918 127.549 369.935 127.965 371.139 127.965H396.939C398.143 127.965 399.161 127.549 399.992 126.718C400.824 125.887 401.239 124.869 401.239 123.665C401.239 122.461 400.824 121.443 399.992 120.612C399.161 119.781 398.143 119.365 396.939 119.365ZM417.418 108.615H469.018V118.935H431.006V138.715H417.418V108.615Z" fill="#756AAA"/>
<path d="M67.6636 156.332V155.832H67.1636V156.332H67.6636ZM81.2516 156.332H81.7516V155.832H81.2516V156.332ZM81.2516 172.844H80.7516V173.797L81.5357 173.255L81.2516 172.844ZM105.16 156.332V155.832H105.004L104.875 155.92L105.16 156.332ZM124.854 156.332L125.138 156.743L126.458 155.832H124.854V156.332ZM103.053 171.382L102.769 170.97L102.172 171.382L102.769 171.793L103.053 171.382ZM124.854 186.432V186.932H126.458L125.138 186.02L124.854 186.432ZM105.16 186.432L104.875 186.843L105.004 186.932H105.16V186.432ZM93.2056 178.176L93.4897 177.764L93.2056 177.568L92.9214 177.764L93.2056 178.176ZM81.2516 186.432V186.932H81.4075L81.5357 186.843L81.2516 186.432ZM67.6636 186.432H67.1636V186.932H67.6636V186.432ZM67.6636 156.332V156.832H81.2516V156.332V155.832H67.6636V156.332ZM81.2516 156.332H80.7516V172.844H81.2516H81.7516V156.332H81.2516ZM81.2516 172.844L81.5357 173.255L105.444 156.743L105.16 156.332L104.875 155.92L80.9674 172.432L81.2516 172.844ZM105.16 156.332V156.832H124.854V156.332V155.832H105.16V156.332ZM124.854 156.332L124.57 155.92L102.769 170.97L103.053 171.382L103.337 171.793L125.138 156.743L124.854 156.332ZM103.053 171.382L102.769 171.793L124.57 186.843L124.854 186.432L125.138 186.02L103.337 170.97L103.053 171.382ZM124.854 186.432V185.932H105.16V186.432V186.932H124.854V186.432ZM105.16 186.432L105.444 186.02L93.4897 177.764L93.2056 178.176L92.9214 178.587L104.875 186.843L105.16 186.432ZM93.2056 178.176L92.9214 177.764L80.9674 186.02L81.2516 186.432L81.5357 186.843L93.4897 178.587L93.2056 178.176ZM81.2516 186.432V185.932H67.6636V186.432V186.932H81.2516V186.432ZM67.6636 186.432H68.1636V156.332H67.6636H67.1636V186.432H67.6636ZM189.809 186.432V186.932H190.857L190.197 186.117L189.809 186.432ZM174.501 186.432L174.112 186.746L174.262 186.932H174.501V186.432ZM171.018 182.132L171.406 181.817L171.256 181.632H171.018V182.132ZM144.53 182.132V181.632H144.291L144.141 181.817L144.53 182.132ZM141.047 186.432V186.932H141.285L141.435 186.746L141.047 186.432ZM125.739 186.432L125.35 186.117L124.69 186.932H125.739V186.432ZM150.12 156.332V155.832H149.881L149.731 156.017L150.12 156.332ZM165.428 156.332L165.816 156.017L165.666 155.832H165.428V156.332ZM164.052 173.532V174.032H165.101L164.44 173.217L164.052 173.532ZM157.774 165.792L158.162 165.477L157.774 164.998L157.385 165.477L157.774 165.792ZM151.496 173.532L151.107 173.217L150.446 174.032H151.496V173.532ZM189.809 186.432V185.932H174.501V186.432V186.932H189.809V186.432ZM174.501 186.432L174.889 186.117L171.406 181.817L171.018 182.132L170.629 182.446L174.112 186.746L174.501 186.432ZM171.018 182.132V181.632H144.53V182.132V182.632H171.018V182.132ZM144.53 182.132L144.141 181.817L140.658 186.117L141.047 186.432L141.435 186.746L144.918 182.446L144.53 182.132ZM141.047 186.432V185.932H125.739V186.432V186.932H141.047V186.432ZM125.739 186.432L126.127 186.746L150.508 156.646L150.12 156.332L149.731 156.017L125.35 186.117L125.739 186.432ZM150.12 156.332V156.832H165.428V156.332V155.832H150.12V156.332ZM165.428 156.332L165.039 156.646L189.42 186.746L189.809 186.432L190.197 186.117L165.816 156.017L165.428 156.332ZM164.052 173.532L164.44 173.217L158.162 165.477L157.774 165.792L157.385 166.107L163.663 173.847L164.052 173.532ZM157.774 165.792L157.385 165.477L151.107 173.217L151.496 173.532L151.884 173.847L158.162 166.107L157.774 165.792ZM151.496 173.532V174.032H164.052V173.532V173.032H151.496V173.532ZM202.129 166.652H202.629V166.152H202.129V166.652ZM180.371 166.652H179.871V167.152H180.371V166.652ZM180.371 156.332V155.832H179.871V156.332H180.371ZM237.561 156.332H238.061V155.832H237.561V156.332ZM237.561 166.652V167.152H238.061V166.652H237.561ZM215.717 166.652V166.152H215.217V166.652H215.717ZM215.717 186.432V186.932H216.217V186.432H215.717ZM202.129 186.432H201.629V186.932H202.129V186.432ZM202.129 166.652V166.152H180.371V166.652V167.152H202.129V166.652ZM180.371 166.652H180.871V156.332H180.371H179.871V166.652H180.371ZM180.371 156.332V156.832H237.561V156.332V155.832H180.371V156.332ZM237.561 156.332H237.061V166.652H237.561H238.061V156.332H237.561ZM237.561 166.652V166.152H215.717V166.652V167.152H237.561V166.652ZM215.717 166.652H215.217V186.432H215.717H216.217V166.652H215.717ZM215.717 186.432V185.932H202.129V186.432V186.932H215.717V186.432ZM202.129 186.432H202.629V166.652H202.129H201.629V186.432H202.129ZM292.186 186.432V186.932H293.234L292.574 186.117L292.186 186.432ZM276.878 186.432L276.489 186.746L276.639 186.932H276.878V186.432ZM273.395 182.132L273.783 181.817L273.633 181.632H273.395V182.132ZM246.907 182.132V181.632H246.668L246.518 181.817L246.907 182.132ZM243.424 186.432V186.932H243.662L243.812 186.746L243.424 186.432ZM228.116 186.432L227.727 186.117L227.067 186.932H228.116V186.432ZM252.497 156.332V155.832H252.258L252.108 156.017L252.497 156.332ZM267.805 156.332L268.193 156.017L268.043 155.832H267.805V156.332ZM266.429 173.532V174.032H267.478L266.817 173.217L266.429 173.532ZM260.151 165.792L260.539 165.477L260.151 164.998L259.762 165.477L260.151 165.792ZM253.873 173.532L253.484 173.217L252.823 174.032H253.873V173.532ZM292.186 186.432V185.932H276.878V186.432V186.932H292.186V186.432ZM276.878 186.432L277.266 186.117L273.783 181.817L273.395 182.132L273.006 182.446L276.489 186.746L276.878 186.432ZM273.395 182.132V181.632H246.907V182.132V182.632H273.395V182.132ZM246.907 182.132L246.518 181.817L243.035 186.117L243.424 186.432L243.812 186.746L247.295 182.446L246.907 182.132ZM243.424 186.432V185.932H228.116V186.432V186.932H243.424V186.432ZM228.116 186.432L228.504 186.746L252.885 156.646L252.497 156.332L252.108 156.017L227.727 186.117L228.116 186.432ZM252.497 156.332V156.832H267.805V156.332V155.832H252.497V156.332ZM267.805 156.332L267.416 156.646L291.797 186.746L292.186 186.432L292.574 186.117L268.193 156.017L267.805 156.332ZM266.429 173.532L266.817 173.217L260.539 165.477L260.151 165.792L259.762 166.107L266.04 173.847L266.429 173.532ZM260.151 165.792L259.762 165.477L253.484 173.217L253.873 173.532L254.261 173.847L260.539 166.107L260.151 165.792ZM253.873 173.532V174.032H266.429V173.532V173.032H253.873V173.532ZM308.429 186.432V186.932H308.667L308.817 186.746L308.429 186.432ZM293.121 186.432L292.732 186.117L292.072 186.932H293.121V186.432ZM317.502 156.332V155.832H317.263L317.113 156.017L317.502 156.332ZM332.81 156.332L333.198 156.017L333.048 155.832H332.81V156.332ZM357.191 186.432V186.932H358.239L357.579 186.117L357.191 186.432ZM341.883 186.432L341.494 186.746L341.644 186.932H341.883V186.432ZM325.156 165.792L325.544 165.477L325.156 164.998L324.767 165.477L325.156 165.792ZM308.429 186.432V185.932H293.121V186.432V186.932H308.429V186.432ZM293.121 186.432L293.509 186.746L317.89 156.646L317.502 156.332L317.113 156.017L292.732 186.117L293.121 186.432ZM317.502 156.332V156.832H332.81V156.332V155.832H317.502V156.332ZM332.81 156.332L332.421 156.646L356.802 186.746L357.191 186.432L357.579 186.117L333.198 156.017L332.81 156.332ZM357.191 186.432V185.932H341.883V186.432V186.932H357.191V186.432ZM341.883 186.432L342.271 186.117L325.544 165.477L325.156 165.792L324.767 166.106L341.494 186.746L341.883 186.432ZM325.156 165.792L324.767 165.477L308.04 186.117L308.429 186.432L308.817 186.746L325.544 166.106L325.156 165.792ZM405.582 157.149L405.789 156.693V156.693L405.582 157.149ZM410.355 160.546L409.991 160.888L409.998 160.896L410.355 160.546ZM413.58 165.491L413.118 165.68L413.121 165.688L413.58 165.491ZM413.58 177.316L413.12 177.12L413.119 177.124L413.58 177.316ZM410.355 182.261L409.995 181.914L409.995 181.915L410.355 182.261ZM405.582 185.615L405.789 186.07V186.07L405.582 185.615ZM362.496 185.615L362.703 185.159V185.159L362.496 185.615ZM357.68 182.261L357.316 182.603L357.323 182.611L357.68 182.261ZM354.455 177.316L353.993 177.505L353.996 177.513L354.455 177.316ZM354.455 165.491L353.995 165.295L353.994 165.299L354.455 165.491ZM357.68 160.546L357.32 160.199L357.32 160.2L357.68 160.546ZM362.496 157.149L362.29 156.693V156.693L362.496 157.149ZM368.086 168.329L367.733 167.975V167.975L368.086 168.329ZM399.992 174.435L399.639 174.081V174.081L399.992 174.435ZM399.992 168.329L399.639 168.682V168.682L399.992 168.329ZM399.734 155.902V156.402C401.729 156.402 403.608 156.803 405.376 157.604L405.582 157.149L405.789 156.693C403.888 155.832 401.868 155.402 399.734 155.402V155.902ZM405.582 157.149L405.376 157.604C407.153 158.409 408.69 159.504 409.991 160.888L410.355 160.546L410.72 160.203C409.327 158.721 407.682 157.551 405.789 156.693L405.582 157.149ZM410.355 160.546L409.998 160.896C411.327 162.252 412.367 163.845 413.118 165.68L413.58 165.491L414.043 165.301C413.246 163.352 412.136 161.648 410.713 160.196L410.355 160.546ZM413.58 165.491L413.121 165.688C413.897 167.488 414.284 169.384 414.284 171.382H414.784H415.284C415.284 169.251 414.87 167.22 414.04 165.293L413.58 165.491ZM414.784 171.382H414.284C414.284 173.379 413.896 175.29 413.12 177.12L413.58 177.316L414.041 177.511C414.87 175.557 415.284 173.512 415.284 171.382H414.784ZM413.58 177.316L413.119 177.124C412.368 178.931 411.327 180.527 409.995 181.914L410.355 182.261L410.716 182.607C412.136 181.128 413.245 179.427 414.042 177.507L413.58 177.316ZM410.355 182.261L409.995 181.915C408.693 183.272 407.155 184.353 405.376 185.159L405.582 185.615L405.789 186.07C407.679 185.213 409.323 184.059 410.716 182.607L410.355 182.261ZM405.582 185.615L405.376 185.159C403.608 185.96 401.729 186.362 399.734 186.362V186.862V187.362C401.868 187.362 403.888 186.932 405.789 186.07L405.582 185.615ZM399.734 186.862V186.362H368.344V186.862V187.362H399.734V186.862ZM368.344 186.862V186.362C366.35 186.362 364.471 185.96 362.703 185.159L362.496 185.615L362.29 186.07C364.191 186.932 366.211 187.362 368.344 187.362V186.862ZM362.496 185.615L362.703 185.159C360.923 184.353 359.369 183.27 358.038 181.911L357.68 182.261L357.323 182.611C358.744 184.06 360.4 185.214 362.29 186.07L362.496 185.615ZM357.68 182.261L358.045 181.918C356.738 180.529 355.695 178.929 354.915 177.118L354.455 177.316L353.996 177.513C354.821 179.428 355.928 181.126 357.316 182.603L357.68 182.261ZM354.455 177.316L354.918 177.126C354.169 175.295 353.794 173.381 353.794 171.382H353.294H352.794C352.794 173.51 353.194 175.552 353.993 177.505L354.455 177.316ZM353.294 171.382H353.794C353.794 169.382 354.169 167.484 354.917 165.682L354.455 165.491L353.994 165.299C353.194 167.224 352.794 169.253 352.794 171.382H353.294ZM354.455 165.491L354.916 165.686C355.696 163.847 356.738 162.25 358.041 160.892L357.68 160.546L357.32 160.2C355.928 161.65 354.82 163.351 353.995 165.295L354.455 165.491ZM357.68 160.546L358.041 160.892C359.372 159.505 360.925 158.41 362.703 157.604L362.496 157.149L362.29 156.693C360.398 157.55 358.74 158.72 357.32 160.199L357.68 160.546ZM362.496 157.149L362.703 157.604C364.471 156.803 366.35 156.402 368.344 156.402V155.902V155.402C366.211 155.402 364.191 155.832 362.29 156.693L362.496 157.149ZM368.344 155.902V156.402H399.734V155.902V155.402H368.344V155.902ZM396.939 167.082V166.582H371.139V167.082V167.582H396.939V167.082ZM371.139 167.082V166.582C369.806 166.582 368.66 167.047 367.733 167.975L368.086 168.329L368.44 168.682C369.175 167.947 370.064 167.582 371.139 167.582V167.082ZM368.086 168.329L367.733 167.975C366.805 168.903 366.339 170.049 366.339 171.382H366.839H367.339C367.339 170.307 367.705 169.417 368.44 168.682L368.086 168.329ZM366.839 171.382H366.339C366.339 172.715 366.805 173.861 367.733 174.788L368.086 174.435L368.44 174.081C367.705 173.346 367.339 172.457 367.339 171.382H366.839ZM368.086 174.435L367.733 174.788C368.66 175.716 369.806 176.182 371.139 176.182V175.682V175.182C370.064 175.182 369.175 174.816 368.44 174.081L368.086 174.435ZM371.139 175.682V176.182H396.939V175.682V175.182H371.139V175.682ZM396.939 175.682V176.182C398.272 176.182 399.418 175.716 400.346 174.788L399.992 174.435L399.639 174.081C398.904 174.816 398.014 175.182 396.939 175.182V175.682ZM399.992 174.435L400.346 174.788C401.274 173.861 401.739 172.715 401.739 171.382H401.239H400.739C400.739 172.457 400.374 173.346 399.639 174.081L399.992 174.435ZM401.239 171.382H401.739C401.739 170.049 401.274 168.903 400.346 167.975L399.992 168.329L399.639 168.682C400.374 169.417 400.739 170.307 400.739 171.382H401.239ZM399.992 168.329L400.346 167.975C399.418 167.047 398.272 166.582 396.939 166.582V167.082V167.582C398.014 167.582 398.904 167.947 399.639 168.682L399.992 168.329ZM417.418 156.332V155.832H416.918V156.332H417.418ZM469.018 156.332H469.518V155.832H469.018V156.332ZM469.018 166.652V167.152H469.518V166.652H469.018ZM431.006 166.652V166.152H430.506V166.652H431.006ZM431.006 186.432V186.932H431.506V186.432H431.006ZM417.418 186.432H416.918V186.932H417.418V186.432ZM417.418 156.332V156.832H469.018V156.332V155.832H417.418V156.332ZM469.018 156.332H468.518V166.652H469.018H469.518V156.332H469.018ZM469.018 166.652V166.152H431.006V166.652V167.152H469.018V166.652ZM431.006 166.652H430.506V186.432H431.006H431.506V166.652H431.006ZM431.006 186.432V185.932H417.418V186.432V186.932H431.006V186.432ZM417.418 186.432H417.918V156.332H417.418H416.918V186.432H417.418Z" fill="black"/>
<path d="M67.6636 204.048H81.2516V220.56L105.16 204.048H124.854L103.053 219.098L124.854 234.148H105.16L93.2056 225.892L81.2516 234.148H67.6636V204.048ZM189.809 234.148H174.501L171.018 229.848H144.53L141.047 234.148H125.739L150.12 204.048H165.428L189.809 234.148ZM164.052 221.248L157.774 213.508L151.496 221.248H164.052ZM202.129 214.368H180.371V204.048H237.561V214.368H215.717V234.148H202.129V214.368ZM292.186 234.148H276.878L273.395 229.848H246.907L243.424 234.148H228.116L252.497 204.048H267.805L292.186 234.148ZM266.429 221.248L260.151 213.508L253.873 221.248H266.429ZM308.429 234.148H293.121L317.502 204.048H332.81L357.191 234.148H341.883L325.156 213.508L308.429 234.148ZM399.734 203.618C401.798 203.618 403.748 204.034 405.582 204.865C407.417 205.697 409.008 206.829 410.355 208.262C411.731 209.667 412.806 211.315 413.58 213.207C414.383 215.071 414.784 217.034 414.784 219.098C414.784 221.162 414.383 223.14 413.58 225.032C412.806 226.896 411.731 228.544 410.355 229.977C409.008 231.382 407.417 232.5 405.582 233.331C403.748 234.163 401.798 234.578 399.734 234.578H368.344C366.28 234.578 364.331 234.163 362.496 233.331C360.662 232.5 359.056 231.382 357.68 229.977C356.333 228.544 355.258 226.896 354.455 225.032C353.681 223.14 353.294 221.162 353.294 219.098C353.294 217.034 353.681 215.071 354.455 213.207C355.258 211.315 356.333 209.667 357.68 208.262C359.056 206.829 360.662 205.697 362.496 204.865C364.331 204.034 366.28 203.618 368.344 203.618H399.734ZM396.939 214.798H371.139C369.935 214.798 368.918 215.214 368.086 216.045C367.255 216.877 366.839 217.894 366.839 219.098C366.839 220.302 367.255 221.32 368.086 222.151C368.918 222.983 369.935 223.398 371.139 223.398H396.939C398.143 223.398 399.161 222.983 399.992 222.151C400.824 221.32 401.239 220.302 401.239 219.098C401.239 217.894 400.824 216.877 399.992 216.045C399.161 215.214 398.143 214.798 396.939 214.798ZM417.418 204.048H469.018V214.368H431.006V234.148H417.418V204.048Z" fill="#756AAA"/>
<path d="M67.6636 247.425H81.2516V263.937L105.16 247.425H124.854L103.053 262.475L124.854 277.525H105.16L93.2056 269.269L81.2516 277.525H67.6636V247.425ZM189.809 277.525H174.501L171.018 273.225H144.53L141.047 277.525H125.739L150.12 247.425H165.428L189.809 277.525ZM164.052 264.625L157.774 256.885L151.496 264.625H164.052ZM202.129 257.745H180.371V247.425H237.561V257.745H215.717V277.525H202.129V257.745ZM292.186 277.525H276.878L273.395 273.225H246.907L243.424 277.525H228.116L252.497 247.425H267.805L292.186 277.525ZM266.429 264.625L260.151 256.885L253.873 264.625H266.429ZM308.429 277.525H293.121L317.502 247.425H332.81L357.191 277.525H341.883L325.156 256.885L308.429 277.525ZM399.734 246.995C401.798 246.995 403.748 247.411 405.582 248.242C407.417 249.074 409.008 250.206 410.355 251.639C411.731 253.044 412.806 254.692 413.58 256.584C414.383 258.448 414.784 260.411 414.784 262.475C414.784 264.539 414.383 266.517 413.58 268.409C412.806 270.273 411.731 271.921 410.355 273.354C409.008 274.759 407.417 275.877 405.582 276.708C403.748 277.54 401.798 277.955 399.734 277.955H368.344C366.28 277.955 364.331 277.54 362.496 276.708C360.662 275.877 359.056 274.759 357.68 273.354C356.333 271.921 355.258 270.273 354.455 268.409C353.681 266.517 353.294 264.539 353.294 262.475C353.294 260.411 353.681 258.448 354.455 256.584C355.258 254.692 356.333 253.044 357.68 251.639C359.056 250.206 360.662 249.074 362.496 248.242C364.331 247.411 366.28 246.995 368.344 246.995H399.734ZM396.939 258.175H371.139C369.935 258.175 368.918 258.591 368.086 259.422C367.255 260.254 366.839 261.271 366.839 262.475C366.839 263.679 367.255 264.697 368.086 265.528C368.918 266.36 369.935 266.775 371.139 266.775H396.939C398.143 266.775 399.161 266.36 399.992 265.528C400.824 264.697 401.239 263.679 401.239 262.475C401.239 261.271 400.824 260.254 399.992 259.422C399.161 258.591 398.143 258.175 396.939 258.175ZM417.418 247.425H469.018V257.745H431.006V277.525H417.418V247.425Z" fill="#756AAA"/>
<path d="M67.6636 295.142V294.642H67.1636V295.142H67.6636ZM81.2516 295.142H81.7516V294.642H81.2516V295.142ZM81.2516 311.654H80.7516V312.607L81.5357 312.066L81.2516 311.654ZM105.16 295.142V294.642H105.004L104.875 294.731L105.16 295.142ZM124.854 295.142L125.138 295.554L126.458 294.642H124.854V295.142ZM103.053 310.192L102.769 309.781L102.172 310.192L102.769 310.604L103.053 310.192ZM124.854 325.242V325.742H126.458L125.138 324.831L124.854 325.242ZM105.16 325.242L104.875 325.654L105.004 325.742H105.16V325.242ZM93.2056 316.986L93.4897 316.575L93.2056 316.379L92.9214 316.575L93.2056 316.986ZM81.2516 325.242V325.742H81.4075L81.5357 325.654L81.2516 325.242ZM67.6636 325.242H67.1636V325.742H67.6636V325.242ZM67.6636 295.142V295.642H81.2516V295.142V294.642H67.6636V295.142ZM81.2516 295.142H80.7516V311.654H81.2516H81.7516V295.142H81.2516ZM81.2516 311.654L81.5357 312.066L105.444 295.554L105.16 295.142L104.875 294.731L80.9674 311.243L81.2516 311.654ZM105.16 295.142V295.642H124.854V295.142V294.642H105.16V295.142ZM124.854 295.142L124.57 294.731L102.769 309.781L103.053 310.192L103.337 310.604L125.138 295.554L124.854 295.142ZM103.053 310.192L102.769 310.604L124.57 325.654L124.854 325.242L125.138 324.831L103.337 309.781L103.053 310.192ZM124.854 325.242V324.742H105.16V325.242V325.742H124.854V325.242ZM105.16 325.242L105.444 324.831L93.4897 316.575L93.2056 316.986L92.9214 317.398L104.875 325.654L105.16 325.242ZM93.2056 316.986L92.9214 316.575L80.9674 324.831L81.2516 325.242L81.5357 325.654L93.4897 317.398L93.2056 316.986ZM81.2516 325.242V324.742H67.6636V325.242V325.742H81.2516V325.242ZM67.6636 325.242H68.1636V295.142H67.6636H67.1636V325.242H67.6636ZM189.809 325.242V325.742H190.857L190.197 324.927L189.809 325.242ZM174.501 325.242L174.112 325.557L174.262 325.742H174.501V325.242ZM171.018 320.942L171.406 320.627L171.256 320.442H171.018V320.942ZM144.53 320.942V320.442H144.291L144.141 320.627L144.53 320.942ZM141.047 325.242V325.742H141.285L141.435 325.557L141.047 325.242ZM125.739 325.242L125.35 324.927L124.69 325.742H125.739V325.242ZM150.12 295.142V294.642H149.881L149.731 294.827L150.12 295.142ZM165.428 295.142L165.816 294.827L165.666 294.642H165.428V295.142ZM164.052 312.342V312.842H165.101L164.44 312.027L164.052 312.342ZM157.774 304.602L158.162 304.287L157.774 303.808L157.385 304.287L157.774 304.602ZM151.496 312.342L151.107 312.027L150.446 312.842H151.496V312.342ZM189.809 325.242V324.742H174.501V325.242V325.742H189.809V325.242ZM174.501 325.242L174.889 324.927L171.406 320.627L171.018 320.942L170.629 321.257L174.112 325.557L174.501 325.242ZM171.018 320.942V320.442H144.53V320.942V321.442H171.018V320.942ZM144.53 320.942L144.141 320.627L140.658 324.927L141.047 325.242L141.435 325.557L144.918 321.257L144.53 320.942ZM141.047 325.242V324.742H125.739V325.242V325.742H141.047V325.242ZM125.739 325.242L126.127 325.557L150.508 295.457L150.12 295.142L149.731 294.827L125.35 324.927L125.739 325.242ZM150.12 295.142V295.642H165.428V295.142V294.642H150.12V295.142ZM165.428 295.142L165.039 295.457L189.42 325.557L189.809 325.242L190.197 324.927L165.816 294.827L165.428 295.142ZM164.052 312.342L164.44 312.027L158.162 304.287L157.774 304.602L157.385 304.917L163.663 312.657L164.052 312.342ZM157.774 304.602L157.385 304.287L151.107 312.027L151.496 312.342L151.884 312.657L158.162 304.917L157.774 304.602ZM151.496 312.342V312.842H164.052V312.342V311.842H151.496V312.342ZM202.129 305.462H202.629V304.962H202.129V305.462ZM180.371 305.462H179.871V305.962H180.371V305.462ZM180.371 295.142V294.642H179.871V295.142H180.371ZM237.561 295.142H238.061V294.642H237.561V295.142ZM237.561 305.462V305.962H238.061V305.462H237.561ZM215.717 305.462V304.962H215.217V305.462H215.717ZM215.717 325.242V325.742H216.217V325.242H215.717ZM202.129 325.242H201.629V325.742H202.129V325.242ZM202.129 305.462V304.962H180.371V305.462V305.962H202.129V305.462ZM180.371 305.462H180.871V295.142H180.371H179.871V305.462H180.371ZM180.371 295.142V295.642H237.561V295.142V294.642H180.371V295.142ZM237.561 295.142H237.061V305.462H237.561H238.061V295.142H237.561ZM237.561 305.462V304.962H215.717V305.462V305.962H237.561V305.462ZM215.717 305.462H215.217V325.242H215.717H216.217V305.462H215.717ZM215.717 325.242V324.742H202.129V325.242V325.742H215.717V325.242ZM202.129 325.242H202.629V305.462H202.129H201.629V325.242H202.129ZM292.186 325.242V325.742H293.234L292.574 324.927L292.186 325.242ZM276.878 325.242L276.489 325.557L276.639 325.742H276.878V325.242ZM273.395 320.942L273.783 320.627L273.633 320.442H273.395V320.942ZM246.907 320.942V320.442H246.668L246.518 320.627L246.907 320.942ZM243.424 325.242V325.742H243.662L243.812 325.557L243.424 325.242ZM228.116 325.242L227.727 324.927L227.067 325.742H228.116V325.242ZM252.497 295.142V294.642H252.258L252.108 294.827L252.497 295.142ZM267.805 295.142L268.193 294.827L268.043 294.642H267.805V295.142ZM266.429 312.342V312.842H267.478L266.817 312.027L266.429 312.342ZM260.151 304.602L260.539 304.287L260.151 303.808L259.762 304.287L260.151 304.602ZM253.873 312.342L253.484 312.027L252.823 312.842H253.873V312.342ZM292.186 325.242V324.742H276.878V325.242V325.742H292.186V325.242ZM276.878 325.242L277.266 324.927L273.783 320.627L273.395 320.942L273.006 321.257L276.489 325.557L276.878 325.242ZM273.395 320.942V320.442H246.907V320.942V321.442H273.395V320.942ZM246.907 320.942L246.518 320.627L243.035 324.927L243.424 325.242L243.812 325.557L247.295 321.257L246.907 320.942ZM243.424 325.242V324.742H228.116V325.242V325.742H243.424V325.242ZM228.116 325.242L228.504 325.557L252.885 295.457L252.497 295.142L252.108 294.827L227.727 324.927L228.116 325.242ZM252.497 295.142V295.642H267.805V295.142V294.642H252.497V295.142ZM267.805 295.142L267.416 295.457L291.797 325.557L292.186 325.242L292.574 324.927L268.193 294.827L267.805 295.142ZM266.429 312.342L266.817 312.027L260.539 304.287L260.151 304.602L259.762 304.917L266.04 312.657L266.429 312.342ZM260.151 304.602L259.762 304.287L253.484 312.027L253.873 312.342L254.261 312.657L260.539 304.917L260.151 304.602ZM253.873 312.342V312.842H266.429V312.342V311.842H253.873V312.342ZM308.429 325.242V325.742H308.667L308.817 325.557L308.429 325.242ZM293.121 325.242L292.732 324.927L292.072 325.742H293.121V325.242ZM317.502 295.142V294.642H317.263L317.113 294.827L317.502 295.142ZM332.81 295.142L333.198 294.827L333.048 294.642H332.81V295.142ZM357.191 325.242V325.742H358.239L357.579 324.927L357.191 325.242ZM341.883 325.242L341.494 325.557L341.644 325.742H341.883V325.242ZM325.156 304.602L325.544 304.287L325.156 303.808L324.767 304.287L325.156 304.602ZM308.429 325.242V324.742H293.121V325.242V325.742H308.429V325.242ZM293.121 325.242L293.509 325.557L317.89 295.457L317.502 295.142L317.113 294.827L292.732 324.927L293.121 325.242ZM317.502 295.142V295.642H332.81V295.142V294.642H317.502V295.142ZM332.81 295.142L332.421 295.457L356.802 325.557L357.191 325.242L357.579 324.927L333.198 294.827L332.81 295.142ZM357.191 325.242V324.742H341.883V325.242V325.742H357.191V325.242ZM341.883 325.242L342.271 324.927L325.544 304.287L325.156 304.602L324.767 304.917L341.494 325.557L341.883 325.242ZM325.156 304.602L324.767 304.287L308.04 324.927L308.429 325.242L308.817 325.557L325.544 304.917L325.156 304.602ZM405.582 295.959L405.789 295.504V295.504L405.582 295.959ZM410.355 299.356L409.991 299.699L409.998 299.706L410.355 299.356ZM413.58 304.301L413.118 304.491L413.121 304.499L413.58 304.301ZM413.58 316.126L413.12 315.931L413.119 315.934L413.58 316.126ZM410.355 321.071L409.995 320.725L409.995 320.725L410.355 321.071ZM405.582 324.425L405.789 324.881V324.881L405.582 324.425ZM362.496 324.425L362.703 323.97V323.97L362.496 324.425ZM357.68 321.071L357.316 321.414L357.323 321.421L357.68 321.071ZM354.455 316.126L353.993 316.316L353.996 316.324L354.455 316.126ZM354.455 304.301L353.995 304.106L353.994 304.109L354.455 304.301ZM357.68 299.356L357.32 299.01L357.32 299.01L357.68 299.356ZM362.496 295.959L362.29 295.504V295.504L362.496 295.959ZM368.086 307.139L367.733 306.786V306.786L368.086 307.139ZM399.992 313.245L399.639 312.892V312.892L399.992 313.245ZM399.992 307.139L399.639 307.493V307.493L399.992 307.139ZM399.734 294.712V295.212C401.729 295.212 403.608 295.613 405.376 296.415L405.582 295.959L405.789 295.504C403.888 294.642 401.868 294.212 399.734 294.212V294.712ZM405.582 295.959L405.376 296.415C407.153 297.22 408.69 298.314 409.991 299.699L410.355 299.356L410.72 299.014C409.327 297.532 407.682 296.361 405.789 295.504L405.582 295.959ZM410.355 299.356L409.998 299.706C411.327 301.063 412.367 302.656 413.118 304.491L413.58 304.301L414.043 304.112C413.246 302.162 412.136 300.459 410.713 299.006L410.355 299.356ZM413.58 304.301L413.121 304.499C413.897 306.299 414.284 308.195 414.284 310.192H414.784H415.284C415.284 308.061 414.87 306.03 414.04 304.103L413.58 304.301ZM414.784 310.192H414.284C414.284 312.189 413.896 314.101 413.12 315.931L413.58 316.126L414.041 316.321C414.87 314.367 415.284 312.323 415.284 310.192H414.784ZM413.58 316.126L413.119 315.934C412.368 317.741 411.327 319.337 409.995 320.725L410.355 321.071L410.716 321.417C412.136 319.939 413.245 318.238 414.042 316.318L413.58 316.126ZM410.355 321.071L409.995 320.725C408.693 322.082 407.155 323.164 405.376 323.97L405.582 324.425L405.789 324.881C407.679 324.024 409.323 322.87 410.716 321.417L410.355 321.071ZM405.582 324.425L405.376 323.97C403.608 324.771 401.729 325.172 399.734 325.172V325.672V326.172C401.868 326.172 403.888 325.742 405.789 324.881L405.582 324.425ZM399.734 325.672V325.172H368.344V325.672V326.172H399.734V325.672ZM368.344 325.672V325.172C366.35 325.172 364.471 324.771 362.703 323.97L362.496 324.425L362.29 324.881C364.191 325.742 366.211 326.172 368.344 326.172V325.672ZM362.496 324.425L362.703 323.97C360.923 323.163 359.369 322.081 358.038 320.721L357.68 321.071L357.323 321.421C358.744 322.871 360.4 324.024 362.29 324.881L362.496 324.425ZM357.68 321.071L358.045 320.729C356.738 319.339 355.695 317.74 354.915 315.928L354.455 316.126L353.996 316.324C354.821 318.239 355.928 319.937 357.316 321.414L357.68 321.071ZM354.455 316.126L354.918 315.937C354.169 314.106 353.794 312.192 353.794 310.192H353.294H352.794C352.794 312.32 353.194 314.363 353.993 316.316L354.455 316.126ZM353.294 310.192H353.794C353.794 308.192 354.169 306.294 354.917 304.493L354.455 304.301L353.994 304.109C353.194 306.035 352.794 308.064 352.794 310.192H353.294ZM354.455 304.301L354.916 304.496C355.696 302.657 356.738 301.061 358.041 299.702L357.68 299.356L357.32 299.01C355.928 300.461 354.82 302.161 353.995 304.106L354.455 304.301ZM357.68 299.356L358.041 299.702C359.372 298.316 360.925 297.22 362.703 296.415L362.496 295.959L362.29 295.504C360.398 296.361 358.74 297.53 357.32 299.01L357.68 299.356ZM362.496 295.959L362.703 296.415C364.471 295.613 366.35 295.212 368.344 295.212V294.712V294.212C366.211 294.212 364.191 294.642 362.29 295.504L362.496 295.959ZM368.344 294.712V295.212H399.734V294.712V294.212H368.344V294.712ZM396.939 305.892V305.392H371.139V305.892V306.392H396.939V305.892ZM371.139 305.892V305.392C369.806 305.392 368.66 305.858 367.733 306.786L368.086 307.139L368.44 307.493C369.175 306.758 370.064 306.392 371.139 306.392V305.892ZM368.086 307.139L367.733 306.786C366.805 307.713 366.339 308.859 366.339 310.192H366.839H367.339C367.339 309.117 367.705 308.228 368.44 307.493L368.086 307.139ZM366.839 310.192H366.339C366.339 311.525 366.805 312.671 367.733 313.599L368.086 313.245L368.44 312.892C367.705 312.157 367.339 311.267 367.339 310.192H366.839ZM368.086 313.245L367.733 313.599C368.66 314.526 369.806 314.992 371.139 314.992V314.492V313.992C370.064 313.992 369.175 313.627 368.44 312.892L368.086 313.245ZM371.139 314.492V314.992H396.939V314.492V313.992H371.139V314.492ZM396.939 314.492V314.992C398.272 314.992 399.418 314.526 400.346 313.599L399.992 313.245L399.639 312.892C398.904 313.627 398.014 313.992 396.939 313.992V314.492ZM399.992 313.245L400.346 313.599C401.274 312.671 401.739 311.525 401.739 310.192H401.239H400.739C400.739 311.267 400.374 312.157 399.639 312.892L399.992 313.245ZM401.239 310.192H401.739C401.739 308.859 401.274 307.713 400.346 306.786L399.992 307.139L399.639 307.493C400.374 308.228 400.739 309.117 400.739 310.192H401.239ZM399.992 307.139L400.346 306.786C399.418 305.858 398.272 305.392 396.939 305.392V305.892V306.392C398.014 306.392 398.904 306.758 399.639 307.493L399.992 307.139ZM417.418 295.142V294.642H416.918V295.142H417.418ZM469.018 295.142H469.518V294.642H469.018V295.142ZM469.018 305.462V305.962H469.518V305.462H469.018ZM431.006 305.462V304.962H430.506V305.462H431.006ZM431.006 325.242V325.742H431.506V325.242H431.006ZM417.418 325.242H416.918V325.742H417.418V325.242ZM417.418 295.142V295.642H469.018V295.142V294.642H417.418V295.142ZM469.018 295.142H468.518V305.462H469.018H469.518V295.142H469.018ZM469.018 305.462V304.962H431.006V305.462V305.962H469.018V305.462ZM431.006 305.462H430.506V325.242H431.006H431.506V305.462H431.006ZM431.006 325.242V324.742H417.418V325.242V325.742H431.006V325.242ZM417.418 325.242H417.918V295.142H417.418H416.918V325.242H417.418Z" fill="black"/>
<g filter="url(#filter0_di_338_165)">
<path d="M492.466 49.8557L524.967 75.7561L473.994 79.2299L473.903 79.2612C452.505 90.9611 424.668 83.6471 407.697 62.6892L389.615 74.5695C403.352 100.319 397.319 131.265 374.918 145.668C374.186 146.202 373.488 146.537 372.607 146.934L346.883 190.407L337.078 150.663L281.532 186.373L294.399 130.056L224.556 105.866L284.933 67.646L301.519 57.035L302.949 56.1658C304.135 55.4749 305.35 54.8683 306.507 54.093C308.999 52.7641 311.524 51.2352 313.838 49.6845C334.685 36.3817 362.454 42.0207 380.379 61.6126L399.375 49.1352C387.858 24.2259 394.287 -4.6855 415.65 -18.2604C415.985 -18.4699 416.291 -18.7637 416.564 -18.8575C418.419 -19.9674 420.006 -21.2679 421.861 -22.3778L422.592 -22.9124L437.92 -31.8637L438.374 -32.02L499.844 -68.5409L491.896 3.2556L549.49 16.3736L492.317 49.7182L492.466 49.8557Z" fill="#4A4A4A" fill-opacity="0.35" shape-rendering="crispEdges"/>
</g>
<g filter="url(#filter1_di_338_165)">
<path d="M282.332 368.07L316.282 395.258L263.111 398.811L263.016 398.844C240.712 411.064 211.658 403.355 193.918 381.371L175.074 393.786C189.449 420.784 183.207 453.193 159.861 468.244C159.099 468.802 158.371 469.152 157.453 469.566L130.69 515.065L120.393 473.412L62.5054 510.728L75.8328 451.752L2.92778 426.293L65.8516 386.355L83.1379 375.267L84.628 374.359C85.8642 373.637 87.1308 373.004 88.3365 372.194C90.934 370.806 93.5656 369.208 95.9771 367.588C117.704 353.687 146.683 359.642 165.416 380.196L185.213 367.157C173.156 341.043 179.813 310.766 202.078 296.581C202.427 296.362 202.745 296.055 203.03 295.957C204.964 294.798 206.617 293.438 208.55 292.278L209.313 291.72L225.288 282.368L225.762 282.205L289.829 244.05L281.658 319.251L341.766 333.091L282.177 367.926L282.332 368.07Z" fill="#4A4A4A" fill-opacity="0.35" shape-rendering="crispEdges"/>
</g>
</g>
<defs>
<filter id="filter0_di_338_165" x="214.145" y="-70.2761" width="350.094" height="284.109" filterUnits="userSpaceOnUse" color-interpolation-filters="sRGB">
<feFlood flood-opacity="0" result="BackgroundImageFix"/>
<feColorMatrix in="SourceAlpha" type="matrix" values="0 0 0 0 0 0 0 0 0 0 0 0 0 0 0 0 0 0 127 0" result="hardAlpha"/>
<feOffset dx="2.16891" dy="10.8445"/>
<feGaussianBlur stdDeviation="6.28983"/>
<feComposite in2="hardAlpha" operator="out"/>
<feColorMatrix type="matrix" values="0 0 0 0 0 0 0 0 0 0 0 0 0 0 0 0 0 0 0.25 0"/>
<feBlend mode="normal" in2="BackgroundImageFix" result="effect1_dropShadow_338_165"/>
<feBlend mode="normal" in="SourceGraphic" in2="BackgroundImageFix" result="shape"/>
<feColorMatrix in="SourceAlpha" type="matrix" values="0 0 0 0 0 0 0 0 0 0 0 0 0 0 0 0 0 0 127 0" result="hardAlpha"/>
<feOffset dx="10" dy="4"/>
<feGaussianBlur stdDeviation="2"/>
<feComposite in2="hardAlpha" operator="arithmetic" k2="-1" k3="1"/>
<feColorMatrix type="matrix" values="0 0 0 0 1 0 0 0 0 1 0 0 0 0 1 0 0 0 0.25 0"/>
<feBlend mode="normal" in2="shape" result="effect2_innerShadow_338_165"/>
<feBlend mode="normal" in="effect2_innerShadow_338_165" in2="effect1_dropShadow_338_165" result="effect2_innerShadow_338_165"/>
</filter>
<filter id="filter1_di_338_165" x="-7.48295" y="242.316" width="363.997" height="296.174" filterUnits="userSpaceOnUse" color-interpolation-filters="sRGB">
<feFlood flood-opacity="0" result="BackgroundImageFix"/>
<feColorMatrix in="SourceAlpha" type="matrix" values="0 0 0 0 0 0 0 0 0 0 0 0 0 0 0 0 0 0 127 0" result="hardAlpha"/>
<feOffset dx="2.16891" dy="10.8445"/>
<feGaussianBlur stdDeviation="6.28983"/>
<feComposite in2="hardAlpha" operator="out"/>
<feColorMatrix type="matrix" values="0 0 0 0 0 0 0 0 0 0 0 0 0 0 0 0 0 0 0.25 0"/>
<feBlend mode="normal" in2="BackgroundImageFix" result="effect1_dropShadow_338_165"/>
<feBlend mode="normal" in="SourceGraphic" in2="BackgroundImageFix" result="shape"/>
<feColorMatrix in="SourceAlpha" type="matrix" values="0 0 0 0 0 0 0 0 0 0 0 0 0 0 0 0 0 0 127 0" result="hardAlpha"/>
<feOffset dx="10" dy="4"/>
<feGaussianBlur stdDeviation="2"/>
<feComposite in2="hardAlpha" operator="arithmetic" k2="-1" k3="1"/>
<feColorMatrix type="matrix" values="0 0 0 0 1 0 0 0 0 1 0 0 0 0 1 0 0 0 0.25 0"/>
<feBlend mode="normal" in2="shape" result="effect2_innerShadow_338_165"/>
<feBlend mode="normal" in="effect2_innerShadow_338_165" in2="effect1_dropShadow_338_165" result="effect2_innerShadow_338_165"/>
</filter>
<clipPath id="clip0_338_165">
<rect width="551.987" height="395.825" fill="white"/>
</clipPath>
</defs>
</svg>
