<svg width="238" height="62" viewBox="0 0 238 62" fill="none" xmlns="http://www.w3.org/2000/svg">
<path d="M220.524 1.68753C220.524 1.68753 199.318 -3.54083 195.68 13.5569C195.68 13.5569 198.744 9.83857 198.913 12.7207C199.082 15.6028 200.162 15.4729 195.106 18.7365C195.106 18.7365 195.173 21.44 198.457 22.6903C201.741 23.9405 196.211 19.0613 208.984 21.8135C208.984 21.8135 215.324 22.536 220.229 18.8989C220.229 18.8989 213.298 20.4414 212.091 17.47C210.884 14.4986 217.747 11.7464 217.747 11.7464C217.747 11.7464 208.984 13.0373 209.212 9.65185C209.44 6.2664 208.832 3.90391 220.533 1.69566L220.524 1.68753Z" fill="#30254C"/>
<path d="M40.8326 47.6744H40.7816C40.7816 47.6744 40.7986 47.6256 40.8326 47.6256V47.6744ZM40.9346 48.2115C41.0026 49.0577 40.9006 49.8877 40.6285 50.7014C40.3565 51.5152 40.0504 52.2801 39.7103 52.9961C39.3022 53.94 38.8261 54.8677 38.2819 55.7791C37.7378 56.6904 37.1257 57.5367 36.4455 58.3179C36.0034 58.8386 35.4593 59.3594 34.8131 59.8802C34.201 60.401 33.5208 60.6451 32.7726 60.6125C31.2763 60.6125 29.7799 60.5963 28.2835 60.5637C26.8212 60.5312 25.3588 60.4986 23.8965 60.4661C20.4276 60.401 17.0013 60.3684 13.6005 60.3684C10.1996 60.3359 6.79031 60.3033 3.35548 60.2708H2.69232C2.28422 60.3359 1.91012 60.3196 1.57004 60.222C1.4 60.222 1.26396 60.2057 1.16193 60.1731C1.0259 60.108 0.889883 60.0592 0.75385 60.0267C0.685833 59.9616 0.634827 59.8802 0.600819 59.7825C0.532802 59.6523 0.464768 59.5222 0.396751 59.392C0.328735 59.1967 0.294731 59.0014 0.294731 58.8061C0.260723 58.6108 0.209716 58.4318 0.1417 58.269C-0.0283414 57.3251 -0.0453435 56.3487 0.0906895 55.3396C0.192714 54.3306 0.498777 53.403 1.0089 52.5567C1.38299 51.9057 1.8081 51.4175 2.28421 51.092C2.79433 50.734 3.38948 50.4248 4.06965 50.1644C4.6818 49.9365 5.31095 49.7575 5.95711 49.6273C6.60326 49.4972 7.24942 49.3669 7.89558 49.2368C9.80004 48.8787 11.7045 48.5695 13.609 48.3091C15.5134 48.0487 17.4349 47.8371 19.3734 47.6744C21.4139 47.4791 23.4544 47.3164 25.4864 47.1862C27.5609 47.056 29.6354 46.9583 31.7014 46.8932H34.15C35.0002 46.8932 35.8504 46.9095 36.7006 46.9421C37.0407 46.9746 37.3637 47.0072 37.6698 47.0397C38.0099 47.0723 38.35 47.1048 38.6901 47.1374C38.8601 47.1374 39.1152 47.1699 39.4552 47.235C39.6253 47.235 39.7443 47.2513 39.8123 47.2838L40.0164 47.3327C40.2204 47.3978 40.4075 47.4628 40.5775 47.5279H40.6795C40.6795 47.5279 40.7135 47.5442 40.7816 47.5768L40.8326 47.6256V47.7721C40.8326 47.8372 40.8496 47.8697 40.8836 47.8697V48.1626C40.8836 48.1626 40.9006 48.2115 40.9346 48.2115ZM8.15914 47.7232C8.09112 47.7232 8.04012 47.7395 8.00611 47.7721H7.85308C7.58101 45.6564 7.46197 43.5082 7.49598 41.3356C7.52999 39.1548 7.83605 37.0391 8.41419 34.9967C8.58423 34.3457 8.80531 33.711 9.07738 33.0926C9.34944 32.4416 9.68951 31.8395 10.0976 31.2861C10.4377 30.8304 10.8288 30.4561 11.2709 30.1632C11.713 29.8377 12.1721 29.5448 12.6482 29.2844C13.9405 28.5358 15.3009 27.9336 16.7292 27.4779C18.1916 27.0222 19.6539 26.6154 21.1163 26.2573C24.4151 25.4436 27.7904 24.8577 31.2593 24.4997C32.4836 24.4021 33.7589 24.337 35.0852 24.3044C36.4455 24.2393 37.7208 24.337 38.9111 24.5974C39.0131 24.5974 39.0982 24.6136 39.1662 24.6462C39.2682 24.6787 39.3702 24.7113 39.4723 24.7438C39.5403 24.7438 39.5743 24.7601 39.5743 24.7926C39.6763 24.7926 39.7273 24.8252 39.7273 24.8903L39.7783 24.9391C39.8463 25.0042 39.8803 25.0205 39.8803 24.988C39.9143 25.053 39.9313 25.0856 39.9313 25.0856C39.9654 25.0856 39.9824 25.1181 39.9824 25.1832C40.0164 25.2158 40.0164 25.2321 39.9824 25.2321C39.9824 25.1995 39.9994 25.2158 40.0334 25.2809C40.2714 25.8993 40.3394 26.6317 40.2374 27.4779C40.1014 28.6497 39.8463 29.8051 39.4723 30.9444C39.1322 32.0836 38.7411 33.1902 38.299 34.2643C37.5508 36.1522 36.7346 38.0074 35.8504 39.8302C34.9662 41.6203 34.0479 43.4105 33.0957 45.2007C33.0957 45.2333 33.0787 45.2495 33.0447 45.2495V45.3472C32.9767 45.4774 32.9426 45.5425 32.9426 45.5425C30.8681 45.5425 28.8106 45.6076 26.7787 45.7378C24.7382 45.8354 22.6977 45.9656 20.6657 46.1283C18.5572 46.3236 16.4657 46.5515 14.3997 46.8119C12.3592 47.0723 10.2847 47.3815 8.18464 47.7395L8.15914 47.7232ZM81.9826 32.2544C82.4927 33.4913 82.7987 34.7607 82.9008 36.0626C83.0368 37.332 83.0198 38.6177 82.8497 39.9197C82.4417 42.784 81.4724 45.5262 79.9421 48.1626C78.4117 50.7991 76.5753 53.1263 74.4327 55.1362C72.3922 57.024 70.0457 58.4887 67.4015 59.5303C64.7489 60.5718 62.0282 61.2391 59.2481 61.532C58.0238 61.6622 56.7655 61.7111 55.4731 61.6785C54.1808 61.6785 52.9055 61.5809 51.6472 61.3856C50.3889 61.1903 49.1646 60.8811 47.9743 60.4579C46.784 60.0348 45.6617 59.4815 44.6075 58.7979C43.6893 58.1795 42.8731 57.4797 42.1589 56.6986C41.4107 55.9174 40.8326 55.0223 40.4245 54.0133C39.9824 52.9717 39.7443 51.8813 39.7103 50.7421C39.6423 49.5704 39.7443 48.4474 40.0164 47.3733C40.2885 46.5271 40.7306 45.811 41.3427 45.2251C41.9549 44.6392 42.669 44.151 43.4852 43.7604C44.9816 43.1094 46.597 42.7189 48.3314 42.5887C50.0998 42.4259 51.8002 42.4096 53.4326 42.5398C54.3509 42.6375 55.2691 42.7677 56.1873 42.9304C57.1055 43.0932 58.0067 43.2722 58.8909 43.4675C58.0067 42.5236 57.4116 41.4332 57.1055 40.1963C55.8132 40.5869 54.5379 40.831 53.2796 40.9287C52.5314 40.9612 51.7492 40.9612 50.933 40.9287C50.1508 40.8636 49.3686 40.7334 48.5864 40.5381C47.8383 40.3428 47.1241 40.0662 46.444 39.7081C45.7978 39.3501 45.2196 38.8781 44.7095 38.2922C43.9953 37.4785 43.5872 36.5509 43.4852 35.5093C43.3492 34.4678 43.4512 33.4425 43.7913 32.4335C44.1994 31.2617 44.8115 30.2039 45.6277 29.26C46.4439 28.2835 47.3792 27.4372 48.4334 26.7211C49.4877 25.9725 50.61 25.3541 51.8002 24.8659C53.0245 24.3451 54.2318 23.9382 55.4221 23.6453C57.1566 23.1896 58.925 22.9292 60.7274 22.8641C62.5299 22.7665 64.3493 22.8316 66.1857 23.0594C68.0222 23.3198 69.8586 23.6778 71.695 24.1335C73.5655 24.5892 75.2829 25.3216 76.8473 26.3306C78.0036 27.0467 79.0238 27.9092 79.9081 28.9182C80.7923 29.8947 81.4894 31.0013 81.9995 32.2382L81.9826 32.2544ZM81.3704 37.9179C81.4044 36.7462 81.2854 35.5907 81.0133 34.4515C80.7753 33.2797 80.3502 32.1731 79.738 31.1315C79.0919 30.0574 78.2757 29.1298 77.2894 28.3486C76.3032 27.5349 75.2149 26.8676 74.0247 26.3468C72.3242 25.6633 70.5388 25.1588 68.6683 24.8333C66.7979 24.5079 64.9444 24.3126 63.108 24.2475C61.5096 24.1824 59.9282 24.28 58.3638 24.5404C56.7994 24.7682 55.2691 25.1588 53.7727 25.7121C52.8205 26.0702 51.8512 26.5259 50.865 27.0792C49.8787 27.6325 48.9775 28.2835 48.1613 29.0321C47.3451 29.7482 46.648 30.5782 46.0699 31.5221C45.4917 32.4335 45.1516 33.4262 45.0496 34.5003C44.9476 35.4768 45.0836 36.2905 45.4577 36.9415C45.8318 37.5924 46.3419 38.1132 46.988 38.5038C47.6682 38.8618 48.4504 39.1222 49.3346 39.285C50.2528 39.4477 51.1711 39.5291 52.0893 39.5291C53.0075 39.4965 53.8917 39.3989 54.7419 39.2361C55.6261 39.0734 56.3913 38.8781 57.0375 38.6503C57.0715 38.0644 57.2076 37.4948 57.4456 36.9415C57.6837 36.3556 57.9897 35.8023 58.3638 35.2815C59.112 34.3376 60.0642 33.5564 61.2205 32.938C62.3768 32.287 63.5841 31.9778 64.8424 32.0103C65.0804 32.0103 65.2675 32.0917 65.4035 32.2544C65.5396 32.3846 65.6246 32.5311 65.6586 32.6939C65.6926 32.8566 65.6586 33.0193 65.5566 33.1821C65.4546 33.3448 65.2845 33.4262 65.0464 33.4262C65.0464 33.4262 65.0124 33.4425 64.9444 33.475H64.4343C64.1962 33.5401 63.9412 33.6052 63.6691 33.6703C63.431 33.7029 63.193 33.768 62.9549 33.8656C62.3088 34.126 61.6966 34.484 61.1185 34.9397C60.5403 35.3628 60.0472 35.8674 59.6391 36.4532C59.231 37.0391 58.942 37.6738 58.7719 38.3573C58.6019 39.0083 58.6019 39.6756 58.7719 40.3591C58.874 40.9124 59.078 41.4169 59.3841 41.8726C59.6901 42.3283 60.0472 42.7514 60.4553 43.142C60.6254 43.3048 60.7954 43.4512 60.9654 43.5814C61.1695 43.7116 61.3736 43.8418 61.5776 43.972C61.6796 44.0045 61.7987 44.0534 61.9347 44.1185C62.2748 44.151 62.5979 44.2161 62.9039 44.3138C63.5841 44.444 64.2812 44.5579 64.9954 44.6555C65.7096 44.7532 66.4238 44.7857 67.1379 44.7532C67.5461 44.7532 67.9541 44.6881 68.3623 44.5579C68.8044 44.4277 69.1444 44.1836 69.3825 43.8255C69.4845 43.6302 69.6376 43.5326 69.8416 43.5326C70.0456 43.5326 70.2327 43.5814 70.4028 43.6791C70.6068 43.7767 70.7598 43.9232 70.8619 44.1185C70.9639 44.2812 70.9639 44.4602 70.8619 44.6555C70.6578 45.0461 70.3517 45.3553 69.9436 45.5832C69.5695 45.7785 69.1444 45.9249 68.6683 46.0226C67.6821 46.2504 66.6448 46.2992 65.5566 46.169C64.5023 46.0388 63.465 45.8598 62.4448 45.632C62.1387 45.5994 61.8837 45.5343 61.6796 45.4367C61.3396 45.4041 61.0165 45.339 60.7104 45.2414C59.214 44.9485 57.7177 44.6555 56.2213 44.3626C54.759 44.0696 53.2626 43.9232 51.7322 43.9232C50.3379 43.9232 48.8755 44.0208 47.3452 44.2161C45.8488 44.3788 44.5224 44.8508 43.3662 45.632C42.618 46.1528 42.1249 46.7386 41.8868 47.3896C41.6147 48.008 41.4277 48.7404 41.3257 49.5866C41.2237 50.5306 41.2747 51.4908 41.4787 52.4672C41.6828 53.4111 42.0569 54.2899 42.601 55.1037C43.1451 55.8848 43.7913 56.5684 44.5395 57.1542C45.3216 57.7401 46.1548 58.2283 47.0391 58.6189C49.2156 59.5954 51.5282 60.1487 53.9683 60.2789C56.4169 60.4091 58.7804 60.2464 61.0505 59.7907C63.7031 59.3024 66.2027 58.4562 68.5408 57.2519C70.8874 56.015 72.9449 54.4201 74.7048 52.4672C75.623 51.4582 76.4732 50.3841 77.2554 49.2449C78.0376 48.1057 78.7178 46.9177 79.2959 45.6808C79.874 44.444 80.3331 43.1746 80.6732 41.8726C81.0473 40.5707 81.2684 39.2524 81.3364 37.9179H81.3704ZM95.4668 20.6996C95.3988 20.5694 95.3138 20.423 95.2118 20.2602C95.1438 20.0975 95.1268 19.9022 95.1608 19.6744C95.1948 19.2838 95.3138 18.9257 95.5178 18.6003C95.7559 18.2748 96.028 17.9818 96.3341 17.7214C96.6741 17.4285 97.0142 17.1844 97.3543 16.9891C97.7284 16.7612 98.0854 16.5822 98.4255 16.452C99.9219 15.8011 101.537 15.4593 103.272 15.4268C105.04 15.3942 106.707 15.5244 108.271 15.8173C109.053 15.9801 109.835 16.1916 110.618 16.452C111.434 16.6799 112.182 17.0216 112.862 17.4773C113.406 17.7703 113.831 18.1771 114.137 18.6979C114.477 19.2187 114.613 19.8046 114.545 20.4555C114.511 21.2367 114.154 21.8551 113.474 22.3108C112.828 22.7665 112.182 23.0757 111.536 23.2384C110.379 23.5965 109.189 23.8243 107.965 23.922C106.775 24.0196 105.601 24.0359 104.445 23.9708C103.255 23.9383 102.098 23.808 100.976 23.5802C99.8879 23.3198 98.8337 22.9292 97.8134 22.4085C97.4393 22.2132 97.0992 22.0341 96.7932 21.8714C96.5211 21.6761 96.249 21.4483 95.9769 21.1879C95.9089 21.1879 95.8749 21.1553 95.8749 21.0902C95.8409 21.0251 95.7729 20.9926 95.6709 20.9926V20.8949C95.6709 20.8949 95.6029 20.8786 95.5689 20.8461C95.5008 20.781 95.4668 20.7322 95.4668 20.6996ZM118.405 44.5497C117.793 46.6003 117.062 48.6183 116.212 50.5957C115.362 52.573 114.256 54.4201 112.896 56.1127C112.488 56.6335 112.012 57.138 111.468 57.6262C110.958 58.1144 110.413 58.5538 109.835 58.9444C109.257 59.335 108.628 59.6442 107.948 59.8721C107.268 60.0999 106.571 60.2138 105.856 60.2138C105.278 60.1813 104.819 60.0836 104.479 59.9209C104.139 59.7256 103.85 59.3838 103.612 58.8956C103.34 58.3423 103.17 57.7564 103.102 57.138C103.068 56.487 103.051 55.836 103.051 55.185C102.983 53.9807 103.034 52.7927 103.204 51.6209C103.408 50.4492 103.646 49.2937 103.918 48.1545V47.9592C103.952 47.8941 103.969 47.829 103.969 47.7639C104.037 47.5686 104.003 47.3896 103.867 47.2269C103.731 47.0641 103.561 46.9502 103.357 46.8851C103.187 46.82 103 46.82 102.796 46.8851C102.592 46.9176 102.473 47.0478 102.439 47.2757C102.268 47.9267 102.115 48.5939 101.979 49.2774C101.843 49.961 101.724 50.6445 101.622 51.328C101.01 51.979 100.347 52.6137 99.6329 53.2321C98.9527 53.818 98.2725 54.4039 97.5923 54.9897C96.164 56.0639 94.6506 57.0729 93.0522 58.0168C91.4878 58.9607 89.8385 59.6117 88.1041 59.9697C87.4239 60.165 86.7437 60.2626 86.0636 60.2626C85.3834 60.2626 84.7882 60.1324 84.1761 59.8721C83.2238 59.3838 82.4757 58.6189 81.9316 57.5774C81.5575 56.8938 81.2854 56.1615 81.1153 55.3803C80.9113 54.5991 80.7923 53.8017 80.7583 52.988C80.6903 52.1743 80.6733 51.3605 80.7073 50.5468C80.7413 49.7331 80.8093 48.9357 80.9113 48.1545C81.3874 44.3463 82.4417 40.6764 84.0741 37.1286C84.4481 36.3149 84.8732 35.55 85.3494 34.8339C85.8255 34.0853 86.3186 33.353 86.8288 32.6369C87.2369 32.1487 87.1348 31.6604 86.5226 31.1722C86.1145 30.9118 85.7745 30.6514 85.5024 30.391C85.2304 30.1306 85.0943 29.7238 85.0943 29.1705C85.0943 28.4218 85.3324 27.7709 85.8085 27.2175C86.2846 26.6642 86.8457 26.2085 87.4919 25.8505C88.2741 25.3948 89.1073 25.053 89.9915 24.8252C90.9097 24.5648 91.8279 24.3532 92.7462 24.1905C93.4603 24.0929 94.2425 24.044 95.0927 24.044C95.977 24.0115 96.7932 24.0928 97.5413 24.2881C98.3235 24.4509 99.0037 24.7601 99.5819 25.2158C100.194 25.6715 100.602 26.3387 100.806 27.2175C101.078 28.3567 100.959 29.4959 100.449 30.6351C100.075 31.4814 99.6158 32.3277 99.0717 33.174C98.5616 33.9877 98.0685 34.7851 97.5923 35.5663C97.4903 35.8267 97.3203 36.1359 97.0822 36.4939C97.0482 36.559 97.0312 36.5916 97.0312 36.5916C96.249 37.4704 95.4838 38.3492 94.7357 39.228C93.9875 40.1068 93.2393 40.9856 92.4911 41.8645C92.4571 41.9296 92.4231 41.9784 92.3891 42.0109C92.3891 42.0435 92.3721 42.0923 92.3381 42.1574C92.168 42.3201 92.117 42.4829 92.1851 42.6456C92.2871 42.8084 92.4231 42.9386 92.5931 43.0362C92.7632 43.1339 92.9502 43.199 93.1543 43.2315C93.3924 43.2315 93.5794 43.1339 93.7154 42.9386C95.2458 41.1484 96.7762 39.3908 98.3065 37.6657C99.8709 35.908 101.469 34.183 103.102 32.4904C104.224 31.3838 105.363 30.2608 106.52 29.1216C107.676 27.9824 108.9 26.9409 110.192 25.997C110.567 25.7366 110.975 25.4599 111.417 25.167C111.859 24.8415 112.318 24.5973 112.794 24.4346C112.93 24.4021 113.049 24.3695 113.151 24.337C113.287 24.2719 113.423 24.2068 113.559 24.1417C114.375 23.9138 115.192 23.865 116.008 23.9952C116.518 24.158 116.96 24.3858 117.334 24.6787C117.708 24.9717 118.065 25.346 118.405 25.8017C118.847 26.4201 119.171 27.0873 119.375 27.8034C119.579 28.4869 119.749 29.1867 119.885 29.9028C120.259 32.3439 120.242 34.8177 119.834 37.3158C119.46 39.7895 118.984 42.1981 118.405 44.5335V44.5497ZM164.036 26.4038C164.546 26.8595 164.903 27.3803 165.107 27.9661C165.311 28.5195 165.413 29.1216 165.413 29.7726C165.481 31.1071 165.209 32.4416 164.597 33.7761C164.019 35.1106 163.237 36.2498 162.251 37.1937C161.876 37.5518 161.502 37.8447 161.128 38.0725C160.754 38.3004 160.312 38.4468 159.802 38.5119C159.258 38.577 158.714 38.5933 158.17 38.5608C157.625 38.4957 157.081 38.4306 156.537 38.3655C155.109 38.1376 153.714 37.8284 152.354 37.4378C150.994 37.0472 149.633 36.6078 148.273 36.1196C148.171 36.022 148.069 35.9732 147.967 35.9732C147.117 35.6802 146.284 35.371 145.467 35.0455C144.651 34.72 143.852 34.3945 143.07 34.069C142.934 34.0039 142.849 33.9388 142.815 33.8737C142.339 33.711 142.016 33.8575 141.846 34.3132C141.812 34.4434 141.761 34.5898 141.693 34.7526C141.352 35.4686 140.995 36.1359 140.621 36.7543C140.621 36.8194 140.604 36.8682 140.57 36.9008C140.57 36.9333 140.587 36.9821 140.621 37.0472C138.479 37.6982 136.489 38.5933 134.661 39.7325C132.859 40.8392 131.261 42.2225 129.866 43.8825C129.73 44.0452 129.696 44.208 129.764 44.3707C129.832 44.5334 129.951 44.6637 130.121 44.7613C130.325 44.8589 130.529 44.9078 130.733 44.9078C130.937 44.9078 131.107 44.8264 131.244 44.6637C132.23 43.4919 133.352 42.4666 134.61 41.5878C135.903 40.6764 137.28 39.9115 138.742 39.2931C140.205 38.6747 141.701 38.2027 143.231 37.8772C144.796 37.5192 146.36 37.3402 147.925 37.3402C149.183 37.7959 150.441 38.219 151.7 38.6096C152.992 38.9676 154.284 39.2768 155.576 39.5372C155.951 39.6023 156.308 39.6674 156.648 39.7325C157.022 39.7651 157.413 39.8139 157.821 39.879C157.821 39.879 157.838 39.9115 157.872 39.9766C159.232 42.0272 159.572 44.208 158.892 46.5108C158.518 47.6825 157.957 48.7729 157.209 49.782C156.461 50.791 155.61 51.7186 154.658 52.5649C153.468 53.6064 152.193 54.5178 150.832 55.299C149.472 56.0476 148.044 56.7311 146.547 57.3495C145.051 58.0005 143.52 58.5701 141.956 59.0583C140.426 59.5466 138.844 59.9046 137.212 60.1324C135.171 60.3928 133.114 60.3928 131.048 60.1324C128.973 59.8395 127.069 59.156 125.335 58.0819C125.097 57.9191 124.909 57.8052 124.773 57.7401C124.671 57.6425 124.501 57.496 124.263 57.3007C123.991 57.0729 123.77 56.8613 123.6 56.666C123.43 56.4382 123.243 56.1778 123.039 55.8848C122.563 55.2013 122.24 54.469 122.07 53.6878C121.866 52.8741 121.747 52.0441 121.713 51.1978C121.679 49.7331 121.9 48.301 122.376 46.9014C122.852 45.5018 123.413 44.151 124.059 42.8491C124.807 41.2216 125.675 39.6756 126.661 38.2109C127.647 36.7462 128.786 35.3629 130.079 34.0609C130.317 33.7354 130.3 33.4099 130.028 33.0844H129.977C129.977 33.0844 129.96 33.0356 129.926 33.0356C129.858 32.938 129.79 32.8566 129.722 32.7915C129.688 32.6939 129.637 32.6125 129.569 32.5474C129.229 32.0917 129.007 31.5384 128.905 30.8874C128.837 30.1713 128.973 29.4715 129.314 28.788C129.688 28.0719 130.181 27.5186 130.793 27.128C131.507 26.6072 132.374 26.2329 133.395 26.0051C134.415 25.7773 135.367 25.582 136.251 25.4192C139.21 24.8659 142.186 24.5241 145.17 24.3939C148.197 24.2312 151.198 24.2149 154.191 24.3451C155.381 24.4102 156.571 24.5078 157.761 24.638C158.986 24.7357 160.193 24.931 161.383 25.2239C161.859 25.3216 162.319 25.468 162.761 25.6633C163.237 25.8261 163.662 26.0702 164.036 26.3957V26.4038ZM202.151 32.2544C202.661 33.4913 202.967 34.7607 203.069 36.0626C203.205 37.332 203.188 38.6177 203.018 39.9197C202.61 42.784 201.641 45.5262 200.11 48.1626C198.58 50.7991 196.743 53.1263 194.601 55.1362C192.56 57.024 190.214 58.4887 187.57 59.5303C184.917 60.5718 182.196 61.2391 179.416 61.532C178.192 61.6622 176.934 61.7111 175.641 61.6785C174.349 61.6785 173.074 61.5809 171.815 61.3856C170.557 61.1903 169.333 60.8811 168.142 60.4579C166.952 60.0348 165.83 59.4815 164.776 58.7979C163.857 58.1795 163.041 57.4797 162.327 56.6986C161.579 55.9174 161.001 55.0223 160.593 54.0133C160.151 52.9717 159.912 51.8813 159.878 50.7421C159.81 49.5704 159.912 48.4474 160.185 47.3733C160.457 46.5271 160.899 45.811 161.511 45.2251C162.123 44.6392 162.837 44.151 163.653 43.7604C165.15 43.1094 166.765 42.7189 168.5 42.5887C170.268 42.4259 171.968 42.4096 173.601 42.5398C174.519 42.6375 175.437 42.7677 176.355 42.9304C177.274 43.0932 178.175 43.2722 179.059 43.4675C178.175 42.5236 177.58 41.4332 177.274 40.1963C175.981 40.5869 174.706 40.831 173.448 40.9287C172.7 40.9612 171.917 40.9612 171.101 40.9287C170.319 40.8636 169.537 40.7334 168.755 40.5381C168.006 40.3428 167.292 40.0662 166.612 39.7081C165.966 39.3501 165.388 38.8781 164.878 38.2922C164.164 37.4785 163.755 36.5509 163.653 35.5093C163.517 34.4678 163.619 33.4425 163.959 32.4335C164.368 31.2617 164.98 30.2039 165.796 29.26C166.612 28.2835 167.547 27.4372 168.602 26.7211C169.656 25.9725 170.778 25.3541 171.968 24.8659C173.193 24.3451 174.4 23.9382 175.59 23.6453C177.325 23.1896 179.093 22.9292 180.896 22.8641C182.698 22.7665 184.517 22.8316 186.354 23.0594C188.19 23.3198 190.027 23.6778 191.863 24.1335C193.734 24.5892 195.451 25.3216 197.015 26.3306C198.172 27.0467 199.192 27.9092 200.076 28.9182C200.96 29.8947 201.658 31.0013 202.168 32.2382L202.151 32.2544ZM201.539 37.9179C201.573 36.7462 201.454 35.5907 201.182 34.4515C200.943 33.2797 200.518 32.1731 199.906 31.1315C199.26 30.0574 198.444 29.1298 197.458 28.3486C196.471 27.5349 195.383 26.8676 194.193 26.3468C192.492 25.6633 190.707 25.1588 188.837 24.8333C186.966 24.5079 185.113 24.3126 183.276 24.2475C181.678 24.1824 180.096 24.28 178.532 24.5404C176.968 24.7682 175.437 25.1588 173.941 25.7121C172.989 26.0702 172.019 26.5259 171.033 27.0792C170.047 27.6325 169.146 28.2835 168.33 29.0321C167.513 29.7482 166.816 30.5782 166.238 31.5221C165.66 32.4335 165.32 33.4262 165.218 34.5003C165.116 35.4768 165.252 36.2905 165.626 36.9415C166 37.5924 166.51 38.1132 167.156 38.5038C167.836 38.8618 168.619 39.1222 169.503 39.285C170.421 39.4477 171.339 39.5291 172.257 39.5291C173.176 39.4965 174.06 39.3989 174.91 39.2361C175.794 39.0734 176.56 38.8781 177.206 38.6503C177.24 38.0644 177.376 37.4948 177.614 36.9415C177.852 36.3556 178.158 35.8023 178.532 35.2815C179.28 34.3376 180.232 33.5564 181.389 32.938C182.545 32.287 183.752 31.9778 185.011 32.0103C185.249 32.0103 185.436 32.0917 185.572 32.2544C185.708 32.3846 185.793 32.5311 185.827 32.6939C185.861 32.8566 185.827 33.0193 185.725 33.1821C185.623 33.3448 185.453 33.4262 185.215 33.4262C185.215 33.4262 185.181 33.4425 185.113 33.475H184.602C184.364 33.5401 184.109 33.6052 183.837 33.6703C183.599 33.7029 183.361 33.768 183.123 33.8656C182.477 34.126 181.865 34.484 181.287 34.9397C180.709 35.3628 180.215 35.8674 179.807 36.4532C179.399 37.0391 179.11 37.6738 178.94 38.3573C178.77 39.0083 178.77 39.6756 178.94 40.3591C179.042 40.9124 179.246 41.4169 179.552 41.8726C179.858 42.3283 180.215 42.7514 180.623 43.142C180.794 43.3048 180.964 43.4512 181.134 43.5814C181.338 43.7116 181.542 43.8418 181.746 43.972C181.848 44.0045 181.967 44.0534 182.103 44.1185C182.443 44.151 182.766 44.2161 183.072 44.3138C183.752 44.444 184.449 44.5579 185.164 44.6555C185.878 44.7532 186.592 44.7857 187.306 44.7532C187.714 44.7532 188.122 44.6881 188.53 44.5579C188.973 44.4277 189.313 44.1836 189.551 43.8255C189.653 43.6302 189.806 43.5326 190.01 43.5326C190.214 43.5326 190.401 43.5814 190.571 43.6791C190.775 43.7767 190.928 43.9232 191.03 44.1185C191.132 44.2812 191.132 44.4602 191.03 44.6555C190.826 45.0461 190.52 45.3553 190.112 45.5832C189.738 45.7785 189.313 45.9249 188.837 46.0226C187.85 46.2504 186.813 46.2992 185.725 46.169C184.67 46.0388 183.633 45.8598 182.613 45.632C182.307 45.5994 182.052 45.5343 181.848 45.4367C181.508 45.4041 181.185 45.339 180.879 45.2414C179.382 44.9485 177.886 44.6555 176.389 44.3626C174.927 44.0696 173.431 43.9232 171.9 43.9232C170.506 43.9232 169.044 44.0208 167.513 44.2161C166.017 44.3788 164.691 44.8508 163.534 45.632C162.786 46.1528 162.293 46.7386 162.055 47.3896C161.783 48.008 161.596 48.7404 161.494 49.5866C161.392 50.5306 161.443 51.4908 161.647 52.4672C161.851 53.4111 162.225 54.2899 162.769 55.1037C163.313 55.8848 163.959 56.5684 164.708 57.1542C165.49 57.7401 166.323 58.2283 167.207 58.6189C169.384 59.5954 171.696 60.1487 174.136 60.2789C176.585 60.4091 178.949 60.2464 181.219 59.7907C183.871 59.3024 186.371 58.4562 188.709 57.2519C191.056 56.015 193.113 54.4201 194.873 52.4672C195.791 51.4582 196.641 50.3841 197.424 49.2449C198.206 48.1057 198.886 46.9177 199.464 45.6808C200.042 44.444 200.501 43.1746 200.841 41.8726C201.216 40.5707 201.437 39.2524 201.505 37.9179H201.539ZM234.748 36.5021C234.101 37.0879 233.353 37.5436 232.503 37.8691C231.687 38.162 230.837 38.3573 229.952 38.455C229.612 38.4875 229.272 38.5038 228.932 38.5038C228.592 38.5038 228.269 38.4713 227.963 38.4062C227.589 38.3736 227.368 38.3411 227.3 38.3085H227.198C227.198 38.0156 227.181 37.7389 227.147 37.4785V36.4044C227.113 36.2091 227.011 36.0464 226.841 35.9162C226.671 35.786 226.484 35.7046 226.28 35.6721C226.076 35.6395 225.888 35.6721 225.718 35.7697C225.582 35.8674 225.531 36.0301 225.565 36.2579C225.735 38.2109 225.667 40.1638 225.361 42.1086C225.089 44.0615 224.681 45.9656 224.137 47.8127C223.899 48.659 223.61 49.5053 223.27 50.3515C222.964 51.1653 222.624 51.979 222.25 52.7927C221.91 53.5413 221.535 54.2899 221.127 55.0386C220.719 55.7546 220.26 56.4219 219.75 57.0403C219.07 57.8866 218.254 58.5701 217.301 59.0909C216.383 59.6116 215.397 59.9697 214.343 60.165C213.356 60.3603 212.336 60.4254 211.282 60.3603C210.228 60.2952 209.207 60.1162 208.221 59.8232C207.235 59.5303 206.3 59.1234 205.416 58.6027C204.531 58.0493 203.783 57.3821 203.171 56.6009C202.593 55.8523 202.185 55.0386 201.947 54.1597C201.709 53.2484 201.675 52.337 201.845 51.4257C201.981 50.7096 202.202 50.0261 202.508 49.3751C202.78 48.7241 203.069 48.0731 203.375 47.4221C204.123 45.9575 204.939 44.6067 205.824 43.3698C206.98 41.775 208.272 40.2614 209.701 38.8293C211.163 37.3646 212.761 36.1277 214.496 35.1187C214.7 34.9885 214.785 34.8421 214.751 34.6793C214.717 34.5166 214.615 34.3701 214.445 34.2399C214.309 34.0772 214.122 33.9795 213.884 33.947C213.68 33.8819 213.492 33.8981 213.322 33.9958C212.064 34.7444 210.891 35.607 209.803 36.5834C208.714 37.5599 207.694 38.6015 206.742 39.7081C205.858 39.4477 205.007 39.0734 204.191 38.5852C203.375 38.0644 202.678 37.4297 202.1 36.6811C201.59 35.9976 201.232 35.2652 201.028 34.484C200.824 33.7029 200.773 32.9217 200.875 32.1405C200.943 31.3593 201.165 30.5945 201.539 29.8459C201.879 29.0972 202.338 28.43 202.916 27.8441C204.14 26.5747 205.62 25.6471 207.354 25.0612C209.122 24.4428 210.891 24.2149 212.659 24.3777C213.748 24.4428 214.768 24.6543 215.72 25.0124C216.672 25.3378 217.607 25.761 218.526 26.2818C219.512 26.8351 220.498 27.4047 221.484 27.9905C222.505 28.5764 223.525 29.146 224.545 29.6994C225.361 30.2201 226.178 30.7247 226.994 31.2129C227.844 31.6686 228.677 32.1731 229.493 32.7264C229.697 32.8891 229.884 32.9543 230.054 32.9217C230.225 32.8566 230.344 32.7589 230.412 32.6288C230.514 32.4986 230.548 32.3358 230.514 32.1405C230.48 31.9452 230.361 31.7662 230.157 31.6035C229.442 31.1478 228.694 30.6921 227.912 30.2364C227.164 29.7807 226.416 29.3251 225.667 28.8694C225.157 28.5764 224.647 28.2835 224.137 27.9905C223.661 27.6976 223.185 27.421 222.709 27.1606C223.899 26.3468 225.242 25.6796 226.739 25.1588C228.235 24.6055 229.714 24.4102 231.177 24.5729C232.605 24.7357 233.812 25.2728 234.799 26.1841C235.819 27.0955 236.516 28.1859 236.89 29.4553C237.264 30.6921 237.247 31.9615 236.839 33.2635C236.431 34.5654 235.734 35.6395 234.748 36.4858V36.5021Z" fill="#30254C"/>
<path d="M28.3698 0.752964C28.3698 0.752964 49.5761 -4.4754 53.2146 12.6223C53.2146 12.6223 50.1501 8.904 49.9813 11.7861C49.8124 14.6682 48.7319 14.5383 53.7886 17.802C53.7886 17.802 53.7211 20.5054 50.4371 21.7557C47.1532 23.006 52.6827 18.1267 39.91 20.8789C39.91 20.8789 33.57 21.6014 28.6652 17.9643C28.6652 17.9643 35.5961 19.5069 36.8033 16.5355C38.0105 13.5641 31.1472 10.8119 31.1472 10.8119C31.1472 10.8119 39.91 12.1027 39.682 8.71728C39.4625 5.32372 40.0619 2.96934 28.3613 0.76109L28.3698 0.752964Z" fill="#30254C"/>
</svg>
