<svg width="616" height="721" viewBox="0 0 616 721" fill="none" xmlns="http://www.w3.org/2000/svg">
<path d="M86.4128 0.366622C113.265 21.1333 207.855 211.087 223.67 316.753C290.59 348.005 358.065 393.018 388.233 326.424C424.384 246.623 543.166 0.321364 518.477 0.321289C501.194 0.321236 140.844 0.366593 86.4128 0.366622Z" fill="#2E203C" stroke="#2E203C" stroke-width="0.642645"/>
<path d="M519.271 4.03271C525.965 2.19201 535.068 2.23152 544.75 9.33057C553.474 13.1372 560.502 16.587 565.54 19.7378C568.08 21.3265 570.184 22.8822 571.76 24.4185C573.312 25.9307 574.522 27.587 574.976 29.4028L575.506 31.522L573.403 32.1138L553.353 37.7544C558.712 76.9346 561.036 153.2 559.981 235.223C558.908 318.664 554.334 408.279 545.849 471.201C535.748 546.107 493.711 602.928 446.67 643.469C399.643 683.998 347.474 708.386 316.723 718.451L315.257 714.199C354.415 699.984 377.566 669.145 389.124 635.857C400.703 602.507 400.549 566.951 393.316 543.775L392.71 541.832L394.582 541.035C424.997 528.087 436.292 506.465 438.255 484.671C440.235 462.682 432.703 440.373 425.103 426.568L424.335 425.171L425.397 423.983C451.31 395.032 451.754 364.221 441.755 337.246C431.703 310.128 411.091 286.963 395.141 273.957L394.169 273.163L394.333 271.918L404.136 197.701L404.15 197.594L404.175 197.49L424.882 107.763L425.006 107.227L425.362 106.809L508.1 9.83252L508.207 9.70654L508.332 9.59717L509.811 11.2915C508.41 9.68596 508.337 9.60143 508.334 9.59619C508.334 9.59583 508.335 9.59398 508.336 9.59326C508.337 9.59181 508.339 9.59024 508.342 9.58838C508.346 9.58465 508.352 9.58006 508.358 9.57471C508.371 9.56406 508.387 9.55042 508.407 9.53369C508.447 9.49988 508.502 9.45374 508.572 9.39697C508.712 9.28312 508.912 9.12533 509.168 8.93408C509.679 8.55186 510.417 8.03325 511.357 7.46143C513.232 6.32077 515.939 4.94917 519.271 4.03271Z" fill="#231C30" stroke="url(#paint0_linear_284_2)" stroke-width="4.49852"/>
<path d="M552.431 17.6095C507.631 11.505 390.809 235.619 338.244 345.454L616 96.6095C616 78.0925 601.62 41.1187 575.262 23.7758C568.351 19.2289 561.898 18.8996 552.431 17.6095Z" fill="#231C30"/>
<g filter="url(#filter0_i_284_2)">
<path d="M580.792 52.0669C541.9 -0.603809 439.279 168.199 408.399 236.886C390.407 229.011 369.912 228.508 431.861 289.493C493.81 350.477 465.091 405.426 446.059 424.682C483.68 492.734 435.285 531.286 411.319 540.616C422.698 569.699 404.673 631.007 394.2 657.642C614.224 584.29 626.308 113.706 580.792 52.0669Z" fill="#30254C"/>
</g>
<path d="M96.729 4.03271C90.0354 2.19201 80.932 2.23152 71.2505 9.33057C62.5262 13.1372 55.4984 16.587 50.4604 19.7378C47.9202 21.3265 45.8159 22.8822 44.2397 24.4185C42.6883 25.9307 41.4779 27.587 41.0239 29.4028L40.4946 31.522L42.5972 32.1138L62.647 37.7544C57.2882 76.9346 54.964 153.2 56.019 235.223C57.0924 318.664 61.666 408.279 70.1509 471.201C80.2519 546.107 122.289 602.928 169.331 643.469C216.358 683.998 268.527 708.386 299.277 718.451L300.744 714.199C261.585 699.984 238.434 669.145 226.876 635.857C215.297 602.507 215.451 566.951 222.684 543.775L223.291 541.832L221.418 541.035C191.004 528.087 179.708 506.465 177.746 484.671C175.766 462.682 183.298 440.373 190.897 426.568L191.666 425.171L190.603 423.983C164.691 395.032 164.246 364.221 174.246 337.246C184.298 310.128 204.91 286.963 220.859 273.957L221.832 273.163L221.667 271.918L211.864 197.701L211.85 197.594L211.826 197.49L191.119 107.763L190.995 107.227L190.638 106.809L107.9 9.83252L107.793 9.70654L107.668 9.59717L106.189 11.2915C107.591 9.68596 107.664 9.60143 107.667 9.59619C107.666 9.59583 107.665 9.59398 107.665 9.59326C107.663 9.59181 107.661 9.59024 107.659 9.58838C107.654 9.58465 107.648 9.58006 107.642 9.57471C107.63 9.56406 107.613 9.55042 107.593 9.53369C107.553 9.49988 107.498 9.45374 107.428 9.39697C107.288 9.28312 107.088 9.12533 106.833 8.93408C106.321 8.55186 105.583 8.03325 104.643 7.46143C102.768 6.32077 100.062 4.94917 96.729 4.03271Z" fill="#231C30" stroke="url(#paint1_linear_284_2)" stroke-width="4.49852"/>
<path d="M63.5686 17.6095C108.369 11.505 225.191 235.619 277.755 345.454L0 96.6095C0 78.0925 14.3794 41.1187 40.7375 23.7758C47.648 19.2289 54.101 18.8996 63.5686 17.6095Z" fill="#231C30"/>
<g filter="url(#filter1_i_284_2)">
<path d="M35.2071 52.0669C74.0997 -0.603809 176.72 168.199 207.601 236.886C225.592 229.011 246.087 228.508 184.138 289.493C122.189 350.477 150.908 405.426 169.94 424.682C132.32 492.734 180.715 531.286 204.681 540.616C193.302 569.699 211.327 631.007 221.799 657.642C1.77564 584.29 -10.308 113.706 35.2071 52.0669Z" fill="#30254C"/>
</g>
<g filter="url(#filter2_d_284_2)">
<path d="M347.452 534.428C321.002 551.079 293.512 551.702 267.462 534.428C236.186 513.69 267.529 469.562 242.601 441.487C220.175 416.231 164.009 405.536 164.009 405.536L178.931 329.009L164.009 209.169L170.916 77.2479C170.916 77.2479 236.726 117.084 258.119 167.646C275.771 209.366 285.747 276.643 285.747 276.643C299.993 271.02 309.059 271.02 324.6 276.643C324.6 276.643 334.97 210.346 355.251 167.646C377.167 121.502 441.59 69.4624 441.59 69.4624V209.169L433.801 329.009L459.722 405.536C459.722 405.536 400.86 415.64 376.773 441.487C350.844 469.31 379.622 514.177 347.452 534.428Z" fill="#4B2F53"/>
<path d="M347.452 534.428C321.002 551.079 293.512 551.702 267.462 534.428C236.186 513.69 267.529 469.562 242.601 441.487C220.175 416.231 164.009 405.536 164.009 405.536L178.931 329.009L164.009 209.169L170.916 77.2479C170.916 77.2479 236.726 117.084 258.119 167.646C275.771 209.366 285.747 276.643 285.747 276.643C299.993 271.02 309.059 271.02 324.6 276.643C324.6 276.643 334.97 210.346 355.251 167.646C377.167 121.502 441.59 69.4624 441.59 69.4624V209.169L433.801 329.009L459.722 405.536C459.722 405.536 400.86 415.64 376.773 441.487C350.844 469.31 379.622 514.177 347.452 534.428Z" stroke="url(#paint2_linear_284_2)" stroke-width="4.49852"/>
</g>
<path d="M336.3 503.951H280.802L307.95 531.366L336.3 503.951Z" fill="#AEA8D3"/>
<path d="M240.898 356.992C267.668 355.013 273.677 387.679 273.335 404.26C266.967 402.48 250.949 398.791 237.821 398.27C221.41 397.619 215.64 372.357 218.589 364.935C220.948 358.998 234.444 357.166 240.898 356.992Z" fill="white"/>
<path d="M382.347 356.992C355.977 355.013 350.058 387.679 350.394 404.26C356.667 402.48 372.446 398.791 385.378 398.27C401.544 397.619 407.228 372.357 404.323 364.935C401.999 358.998 388.704 357.166 382.347 356.992Z" fill="white"/>
<path opacity="0.8" d="M247.319 452.676C272.507 448.309 288.163 420.274 283.933 388.712L294.147 386.806L295.182 379.12L290.398 369.866L279.659 371.859C269.702 344.646 246.036 326.785 222.633 330.859C219.991 331.349 217.279 331.736 214.518 331.972C213.191 332.197 211.906 332.326 210.587 332.465L209.036 332.681L190.416 335.94L122.623 347.33L178.698 401.955L148.534 452.082L211.069 441.077L207.082 484.795L244.827 452.949C245.767 452.892 246.495 452.862 247.319 452.676Z" fill="#FF9350"/>
<path d="M413.62 382.861C404.679 371.52 393.456 392.802 392.224 394.508C387.8 400.633 385.5 395.55 373.221 397.452C360.943 399.354 356.735 406.873 359.205 413.258C362.326 421.328 376.482 412.703 384.829 404.744C393.175 396.785 398.495 402.32 406.869 402.087C412.831 401.921 422.562 394.202 413.62 382.861Z" fill="#504AFF"/>
<path d="M426.652 437.821C428.327 427.564 414.652 407.321 414.652 407.321C414.652 407.321 400.383 427.403 402.152 437.821C403.505 445.791 406.574 448.142 414.652 447.821C422.5 447.51 425.386 445.573 426.652 437.821Z" fill="#504AFF"/>
<defs>
<filter id="filter0_i_284_2" x="390.142" y="42.0464" width="212.052" height="615.595" filterUnits="userSpaceOnUse" color-interpolation-filters="sRGB">
<feFlood flood-opacity="0" result="BackgroundImageFix"/>
<feBlend mode="normal" in="SourceGraphic" in2="BackgroundImageFix" result="shape"/>
<feColorMatrix in="SourceAlpha" type="matrix" values="0 0 0 0 0 0 0 0 0 0 0 0 0 0 0 0 0 0 127 0" result="hardAlpha"/>
<feOffset dx="14.1382" dy="4.49852"/>
<feComposite in2="hardAlpha" operator="arithmetic" k2="-1" k3="1"/>
<feColorMatrix type="matrix" values="0 0 0 0 0.161705 0 0 0 0 0.0839035 0 0 0 0 0.317308 0 0 0 0.25 0"/>
<feBlend mode="normal" in2="shape" result="effect1_innerShadow_284_2"/>
</filter>
<filter id="filter1_i_284_2" x="13.8057" y="42.0464" width="212.052" height="615.595" filterUnits="userSpaceOnUse" color-interpolation-filters="sRGB">
<feFlood flood-opacity="0" result="BackgroundImageFix"/>
<feBlend mode="normal" in="SourceGraphic" in2="BackgroundImageFix" result="shape"/>
<feColorMatrix in="SourceAlpha" type="matrix" values="0 0 0 0 0 0 0 0 0 0 0 0 0 0 0 0 0 0 127 0" result="hardAlpha"/>
<feOffset dx="14.1382" dy="4.49852"/>
<feComposite in2="hardAlpha" operator="arithmetic" k2="-1" k3="1"/>
<feColorMatrix type="matrix" values="0 0 0 0 0.161705 0 0 0 0 0.0839035 0 0 0 0 0.317308 0 0 0 0.25 0"/>
<feBlend mode="normal" in2="shape" result="effect1_innerShadow_284_2"/>
</filter>
<filter id="filter2_d_284_2" x="161.368" y="44.1893" width="301.328" height="505.211" filterUnits="userSpaceOnUse" color-interpolation-filters="sRGB">
<feFlood flood-opacity="0" result="BackgroundImageFix"/>
<feColorMatrix in="SourceAlpha" type="matrix" values="0 0 0 0 0 0 0 0 0 0 0 0 0 0 0 0 0 0 127 0" result="hardAlpha"/>
<feOffset dy="-20.5647"/>
<feComposite in2="hardAlpha" operator="out"/>
<feColorMatrix type="matrix" values="0 0 0 0 0 0 0 0 0 0 0 0 0 0 0 0 0 0 0.25 0"/>
<feBlend mode="normal" in2="BackgroundImageFix" result="effect1_dropShadow_284_2"/>
<feBlend mode="normal" in="SourceGraphic" in2="effect1_dropShadow_284_2" result="shape"/>
</filter>
<linearGradient id="paint0_linear_284_2" x1="435.705" y1="637.424" x2="504.162" y2="434.24" gradientUnits="userSpaceOnUse">
<stop stop-color="#D961F5"/>
<stop offset="1" stop-color="#231C30"/>
</linearGradient>
<linearGradient id="paint1_linear_284_2" x1="180.295" y1="637.424" x2="111.838" y2="434.24" gradientUnits="userSpaceOnUse">
<stop stop-color="#D961F5"/>
<stop offset="1" stop-color="#231C30"/>
</linearGradient>
<linearGradient id="paint2_linear_284_2" x1="301.097" y1="93.9699" x2="297.764" y2="432.506" gradientUnits="userSpaceOnUse">
<stop stop-color="#DE7FEF"/>
<stop offset="1" stop-color="#7F4989"/>
</linearGradient>
</defs>
</svg>
