<svg width="243" height="90" viewBox="0 0 243 90" fill="none" xmlns="http://www.w3.org/2000/svg">
<g clip-path="url(#clip0_155_510)">
<path d="M204.324 82.1487C198.731 82.1487 195.045 78.7794 195.045 73.1422C195.045 65.7555 199.494 62.775 213.858 62.775V62.5806C213.858 57.6562 211.824 55.5827 207.502 55.5827C204.006 55.5827 201.718 56.4899 198.604 60.248L195.617 56.9435C199.24 52.7966 202.608 51.2415 207.82 51.2415C217.353 51.2415 218.497 57.7857 218.497 62.5158V81.3711H213.858V76.8355C211.442 80.2048 208.074 82.1487 204.324 82.1487ZM204.959 77.937C208.074 77.937 210.68 76.1875 213.858 71.1983V66.7274C202.862 66.7274 199.684 68.2826 199.684 73.1422C199.684 76.6411 201.654 77.937 204.959 77.937Z" fill="#30254C"/>
<path d="M167.32 81.3712H162.68V52.084H167.32V64.0062H183.208V52.084H187.849V81.3712H183.208V68.4123H167.32V81.3712Z" fill="#30254C"/>
<path d="M154.027 81.371H149.388V59.4056L132.863 81.371H128.605V52.0838H133.245V73.8548L149.706 52.0838H154.027V81.371ZM141.316 46.641C136.359 46.641 132.61 45.086 130.067 40.4855L133.753 37.7642C135.723 41.2631 137.439 42.2997 141.316 42.2997C145.194 42.2997 146.91 41.2631 148.88 37.7642L152.566 40.4855C150.023 45.086 146.274 46.641 141.316 46.641Z" fill="#30254C"/>
<path d="M106.134 82.1487C100.541 82.1487 96.8549 78.7794 96.8549 73.1422C96.8549 65.7555 101.304 62.775 115.668 62.775V62.5806C115.668 57.6562 113.634 55.5827 109.312 55.5827C105.816 55.5827 103.528 56.4899 100.414 60.248L97.4269 56.9435C101.05 52.7966 104.418 51.2415 109.63 51.2415C119.163 51.2415 120.307 57.7857 120.307 62.5158V81.3711H115.668V76.8355C113.252 80.2048 109.884 82.1487 106.134 82.1487ZM106.77 77.937C109.884 77.937 112.49 76.1875 115.668 71.1983V66.7274C104.672 66.7274 101.495 68.2826 101.495 73.1422C101.495 76.6411 103.465 77.937 106.77 77.937Z" fill="#30254C"/>
<path d="M80.7033 77.8073C84.9616 77.8073 87.0589 75.2154 87.0589 72.4293C87.0589 69.8375 84.6438 68.3473 81.4659 68.3473H77.589V64.006H81.4659C84.326 64.006 86.1692 62.2566 86.1692 59.8591C86.1692 57.3322 84.6438 55.7123 81.5296 55.7123C77.7797 55.7123 76.3179 56.8785 73.5214 60.1831C73.4578 60.1183 70.4071 57.1378 70.4071 57.1378C73.7121 52.926 76.9534 51.3062 81.5296 51.3062C87.4403 51.3062 90.6817 54.9995 90.6817 59.2759C90.6817 62.3861 89.2198 64.5891 86.9318 66.0146C89.919 67.3754 91.6987 69.7079 91.6987 72.7533C91.6987 77.4833 88.0759 82.2781 80.7033 82.2781C76.4449 82.2781 73.3307 81.0471 69.5808 76.8353L72.6951 73.7252C75.7459 76.8353 77.3347 77.8073 80.7033 77.8073Z" fill="#30254C"/>
<path d="M38.0032 52.084H42.6428V73.8551L59.1041 52.084H63.4259V81.3712H58.7863V59.4058L42.2615 81.3712H38.0032V52.084Z" fill="#30254C"/>
<path d="M4.44899 81.371V89.924H0V76.965H3.55918C7.69038 70.0967 7.69038 59.7944 7.69038 52.0837H27.7743V76.965H31.9056V89.924H27.4565V81.371H4.44899ZM23.1347 76.965V56.4898H12.33C12.33 63.4877 11.5674 70.4855 8.70729 76.965H23.1347Z" fill="#30254C"/>
<path d="M149.643 30.9071C144.051 30.9071 140.364 27.5378 140.364 21.9007C140.364 14.5141 144.813 11.5335 159.177 11.5335V11.3391C159.177 6.41468 157.144 4.34126 152.821 4.34126C149.326 4.34126 147.037 5.24839 143.924 9.00648L140.936 5.70194C144.56 1.55508 147.928 0 153.14 0C162.672 0 163.817 6.54429 163.817 11.2743V30.1296H159.177V25.5939C156.762 28.9633 153.393 30.9071 149.643 30.9071ZM150.279 26.6955C153.393 26.6955 155.999 24.9461 159.177 19.9568V15.486C148.182 15.486 145.004 17.041 145.004 21.9007C145.004 25.3996 146.974 26.6955 150.279 26.6955Z" fill="#30254C"/>
<path d="M105.989 30.065V25.3997C106.561 25.659 107.387 25.7237 107.896 25.7237C112.345 25.7237 113.552 18.7907 113.552 0.842529H133.192V30.1298H128.551V5.24858H118.065C118.065 22.1601 115.714 30.389 108.468 30.389C107.642 30.389 106.815 30.2594 105.989 30.065Z" fill="#30254C"/>
<path d="M89.0104 4.40605C83.0996 4.40605 78.7777 9.39526 78.7777 15.486C78.7777 21.5119 83.0996 26.5011 89.0104 26.5011C94.9848 26.5011 99.1159 21.5119 99.1159 15.486C99.1159 9.39526 94.9848 4.40605 89.0104 4.40605ZM74.1381 15.486C74.1381 6.93305 80.6208 0 89.0104 0C97.3999 0 103.756 6.93305 103.756 15.486C103.756 23.9741 97.3999 30.9071 89.0104 30.9071C80.6208 30.9071 74.1381 23.9741 74.1381 15.486Z" fill="#30254C"/>
<path d="M46.9253 30.1301V0.842773H51.565V12.7651H53.853L65.1026 0.842773H70.8227L57.7936 14.7089C61.9247 16.4584 64.7212 25.7888 69.6787 25.7888C70.2507 25.7888 70.8227 25.6592 71.4582 25.4001V30.1301C70.5049 30.3892 69.6151 30.5188 68.8524 30.5188C61.162 30.5188 59.0647 19.8925 54.2343 17.1711H51.565V30.1301H46.9253Z" fill="#30254C"/>
<path d="M18.1774 25.7239V0.842773H22.817V25.7239H33.6217V0.842773H38.2613V30.1301H2.73303V0.842773H7.37269V25.7239H18.1774Z" fill="#30254C"/>
<path d="M233.114 46.6626C238.313 46.6626 242.537 50.9605 242.592 56.3055C242.592 61.6504 238.313 65.9483 233.114 65.9483C227.861 65.9483 223.636 61.5953 223.636 56.3055C223.636 50.9605 227.914 46.6626 233.114 46.6626ZM229.756 49.6381V62.532H237.447V60.1075C237.447 57.7381 236.688 56.1402 234.739 55.4239C235.389 55.2034 235.714 54.7625 235.985 54.4871C236.417 53.936 236.635 53.2748 236.635 52.6136C236.635 52.0626 236.472 51.0707 235.605 50.3545C235.009 49.8585 234.468 49.6381 233.168 49.6381H229.756ZM232.738 50.3005C233.226 50.3005 233.93 50.3556 234.418 51.0168C234.689 51.2924 234.851 51.7333 234.905 52.1741H232.684V52.8351H234.905C234.905 53.2759 234.796 53.7168 234.418 54.2127C234.039 54.6535 233.497 55.0392 232.684 55.0392V55.7005C234.851 55.7005 235.663 57.1883 235.717 59.8883V61.872H234.309V57.574H232.738V61.872H231.493V50.3005H232.738Z" fill="#30254C"/>
</g>
<defs>
<clipPath id="clip0_155_510">
<rect width="242.663" height="90" fill="white"/>
</clipPath>
</defs>
</svg>
